<?xml version="1.0" standalone="no"?>
<!DOCTYPE svg PUBLIC "-//W3C//DTD SVG 1.1//EN" "http://www.w3.org/Graphics/SVG/1.1/DTD/svg11.dtd" >
<!--
2013-9-30: Created.
-->
<svg>
<metadata>
Created by iconfont
</metadata>
<defs>

<font id="fa" horiz-adv-x="1024" >
  <font-face
    font-family="fa"
    font-weight="500"
    font-stretch="normal"
    units-per-em="1024"
    ascent="896"
    descent="-128"
  />
    <missing-glyph />
    
    <glyph glyph-name="Setcontainer-F" unicode="&#59311;" d="M276.25696 393.28A256 256 0 0 0 384.09696 419.2h453.12v87.36A117.76 117.76 0 0 1 800.09696 592.64a116.48 116.48 0 0 1-86.08 35.84h-295.36v17.6A118.72 118.72 0 0 1 384.09696 732.16 117.76 117.76 0 0 1 296.41696 768H122.01696a117.44 117.44 0 0 1-86.08-35.84A117.44 117.44 0 0 1 0.09696 646.08v-523.2a64 64 0 0 1 0-7.04v-6.72l2.56 3.2 183.68 216a256 256 0 0 0 89.92 64.96zM1009.69696 342.4a73.28 73.28 0 0 1-32 7.04H384.09696a189.76 189.76 0 0 1-78.08-19.2 189.12 189.12 0 0 1-65.92-47.36L56.73696 67.2a56.64 56.64 0 0 1-16.96-35.2 24.32 24.32 0 0 1 14.4-23.36 79.04 79.04 0 0 1 32-7.04h593.92a186.88 186.88 0 0 1 78.4 19.52 183.36 183.36 0 0 1 65.6 47.04l183.04 215.68A57.28 57.28 0 0 1 1024.09696 320a24.32 24.32 0 0 1-14.4 22.4z m-285.76-167.36a66.24 66.24 0 0 0-50.56-32H352.09696c-17.6 0-23.68 14.4-13.44 32a66.88 66.88 0 0 0 50.56 32h320c18.88 0 24.96-15.04 14.72-32z"  horiz-adv-x="1024" />

    
    <glyph glyph-name="ProjectChange-O-C" unicode="&#59310;" d="M512 832a448 448 0 1 1 448-448A448 448 0 0 1 512 832z m0-832a384 384 0 1 0 384 384 384 384 0 0 0-384-384zM288 448h448a32 32 0 0 1 24 53.12l-112 128a32 32 0 0 1-48-42.24L665.6 512H288a32 32 0 0 1 0-64z m448-128H288a32 32 0 0 1-24-53.12l112-128a32 32 0 0 1 24-10.88 32 32 0 0 1 24 53.12L358.4 256H736a32 32 0 0 1 0 64z"  horiz-adv-x="1024" />

    
    <glyph glyph-name="DownRightCircle" unicode="&#59308;" d="M768 384a192 192 0 0 1-185.6-144H176V768a48 48 0 0 1-96 0v-576A48 48 0 0 1 128 144h454.4A192 192 0 1 1 768 384z m0-256a64 64 0 1 0 64 64 64 64 0 0 0-64-64z"  horiz-adv-x="1024" />

    
    <glyph glyph-name="DownRightArrow" unicode="&#59309;" d="M943.04 222.08l-234.88 154.24a43.2 43.2 0 0 1-68.16-29.76v-106.56H176V768a48 48 0 0 1-96 0v-576A48 48 0 0 1 128 144h512v-106.56a43.2 43.2 0 0 1 68.16-29.76l234.88 154.24a35.2 35.2 0 0 1 0 60.16z"  horiz-adv-x="1024" />

    
    <glyph glyph-name="Disk-O" unicode="&#59306;" d="M832 192a128 128 0 0 1-123.52-96h-82.56A81.92 81.92 0 0 0 544 177.91999999999996V590.0799999999999A144.32 144.32 0 0 1 518.72 672h189.76a128 128 0 1 1 0 64H315.52a128 128 0 1 1 0-64h82.56A81.92 81.92 0 0 0 480 590.0799999999999v-412.16A145.92 145.92 0 0 1 625.92 32h82.56A128 128 0 1 1 832 192z m0 576a64 64 0 1 0-64-64 64 64 0 0 0 64 64z m0-768a64 64 0 1 0 64 64 64 64 0 0 0-64-64z"  horiz-adv-x="1024" />

    
    <glyph glyph-name="Department" unicode="&#59305;" d="M512 832C264.58 832 64 631.42 64 384s200.58-448 448-448 448 200.58 448 448S759.42 832 512 832z m0-864C282.25-32 96 154.25 96 384S282.25 800 512 800s416-186.25 416-416-186.25-416-416-416zM857 233a9 9 0 0 1-9 9H672a9 9 0 0 1-9-9v-176a9 9 0 0 1 9-9h85.32A418.24 418.24 0 0 1 857 151.48zM500.56 762.06l-68.5-99.65a14 14 0 0 0-19.69-3.27L358 698.69c-9.06 6.6-22 0.32-22-10.67v-130.68A13.55 13.55 0 0 1 349.75 544h324.5A13.55 13.55 0 0 1 688 557.34V688c0 11-12.94 17.27-22 10.67l-54.37-39.55a14 14 0 0 0-19.69 3.27l-68.5 99.65a14 14 0 0 1-22.88 0.02zM361 57V233a9 9 0 0 1-9 9H176a9 9 0 0 1-9-9v-81.52A418.24 418.24 0 0 1 266.68 48H352a9 9 0 0 1 9 9zM415 242m9 0l176 0q9 0 9-9l0-176q0-9-9-9l-176 0q-9 0-9 9l0 176q0 9 9 9ZM264 272a16 16 0 0 1 16 16v96h216v-96a16 16 0 0 1 32 0v96h216v-96a16 16 0 0 1 32 0V400a16 16 0 0 1-16 16H528v80a16 16 0 0 1-32 0v-80H264a16 16 0 0 1-16-16v-112a16 16 0 0 1 16-16z"  horiz-adv-x="1024" />

    
    <glyph glyph-name="Filter-F" unicode="&#59301;" d="M583.04-47.36L416 64V448L147.2 806.4A16 16 0 0 0 160 832h704a16 16 0 0 0 12.8-25.6L608 448v-482.24a16 16 0 0 0-24.96-13.12z"  horiz-adv-x="1024" />

    
    <glyph glyph-name="Filter-O" unicode="&#59303;" d="M768 768l-211.2-281.6-12.8-16.96v-413.76l-64 42.56v371.2l-12.8 16.96L256 768h512m96 64H160a16 16 0 0 1-12.8-25.6L416 448v-384l167.04-111.36a16.32 16.32 0 0 1 8.96-2.88 16 16 0 0 1 16 16V448l268.8 358.4A16 16 0 0 1 864 832z"  horiz-adv-x="1024" />

    
    <glyph glyph-name="ProjectGroup" unicode="&#59297;" d="M512 832C264.58 832 64 631.42 64 384s200.58-448 448-448 448 200.58 448 448S759.42 832 512 832z m-88-72a16 16 0 0 0 16 16h211.57A414.38 414.38 0 0 0 746 728H424z m280-656a16 16 0 0 0-16-16H280a16 16 0 0 0-16 16V600a16 16 0 0 0 16 16h408a16 16 0 0 0 16-16z m80 80a16 16 0 0 0-16-16h-32V616a32 32 0 0 1-32 32H344v32a16 16 0 0 0 16 16h408a16 16 0 0 0 16-16z m64 64h-32V668a417.94 417.94 0 0 0 48-62.18V264a16 16 0 0 0-16-16zM584 285.26V352a16 16 0 0 1-16 16h-72v50.74a48 48 0 1 1-32 0V368h-64a16 16 0 0 1-16-16v-66.74a48 48 0 1 1 32 0V336h136v-50.74a48 48 0 1 1 32 0z"  horiz-adv-x="1024" />

    
    <glyph glyph-name="ReqFiles" unicode="&#59298;" d="M512 832C264.58 832 64 631.4200000000001 64 384s200.58-448 448-448 448 200.58 448 448S759.42 832 512 832z m-88-72a16 16 0 0 0 16 16h211.57A414.38 414.38 0 0 0 746 728H424z m280-656a16 16 0 0 0-16-16H280a16 16 0 0 0-16 16V600a16 16 0 0 0 16 16h408a16 16 0 0 0 16-16z m80 80a16 16 0 0 0-16-16h-32V616a32 32 0 0 1-32 32H344v32a16 16 0 0 0 16 16h408a16 16 0 0 0 16-16z m64 64h-32V668a417.94 417.94 0 0 0 48-62.18V264a16 16 0 0 0-16-16zM556.65 479q-27.36 25-73.29 25-43.36 0-69.76-23.29-23.7-20.93-30.42-58.38a8.3 8.3 0 0 1 7.18-9.72l23.32-2.77a8.28 8.28 0 0 1 9.08 6.5Q428.45 443.41 443 457q16.45 15.39 41 15.39 25.42 0 43-17T544.47 416a45.34 45.34 0 0 0-6-22.86q-6-10.47-26-28.1t-27.67-26.82q-10.47-12.6-15.17-25-6.42-16.47-6.41-39.11v-3.36a8.29 8.29 0 0 1 8.29-8.17h20.8a8.3 8.3 0 0 1 8.29 8q0.69 17 3 25.35a54.63 54.63 0 0 0 8.61 18.07q5.79 8 24.57 24.62 28 24.78 37.6 42.09a76.6 76.6 0 0 1 9.62 37.82Q584 454 556.65 479z m-73.42-238.72a32.14 32.14 0 0 1-32.14-32.14A32.14 32.14 0 0 1 483.22 176a32.13 32.13 0 0 1 32.13 32.14 32.13 32.13 0 0 1-32.12 32.14z"  horiz-adv-x="1024" />

    
    <glyph glyph-name="Principal" unicode="&#59299;" d="M553.57 160h-83.14a8 8 0 0 1-6.78-12.24L496 96h32l32.35 51.76a8 8 0 0 1-6.78 12.24z m59 660.57C371.46 876.11 131 725.68 75.43 484.57s94.89-481.6 336-537.14 481.6 94.89 537.14 336-94.89 481.57-336 537.14zM317.1 500.9c24.8 107.63 132.16 174.79 239.8 150s174.79-132.16 150-239.8-132.16-174.79-239.8-150-174.79 132.16-150 239.8z m243.38-530.17L530.07 88h-36.14l-30.39-117.19a418.62 418.62 0 0 0-44.92 7.81 414 414 0 0 0-198.94 109.33c98 96.57 241.72 142.51 385.7 109.34A414 414 0 0 0 804.32 88a417.25 417.25 0 0 0-243.84-117.27z"  horiz-adv-x="1024" />

    
    <glyph glyph-name="ReqEntry" unicode="&#59300;" d="M512 832C264.58 832 64 631.42 64 384s200.58-448 448-448 448 200.58 448 448S759.42 832 512 832z m272-676a36 36 0 0 0-36-36H190.49A414.3 414.3 0 0 0 96 384C96 613.75 282.25 800 512 800a414.37 414.37 0 0 0 272-101.24zM272 464a48 48 0 1 1 48-48 48 48 0 0 1-48 48z m0-160a48 48 0 1 1 48-48 48 48 0 0 1-48 48z m0 328a48 48 0 1 1 48-48 48 48 0 0 1-48 48z m364-348H380a28 28 0 0 1-28-28 28 28 0 0 1 28-28h256a28 28 0 0 1 28 28 28 28 0 0 1-28 28zM352 585.5v-3a26.49 26.49 0 0 1 26.5-26.5h259a26.49 26.49 0 0 1 26.5 26.5v3a26.49 26.49 0 0 1-26.5 26.5h-259a26.49 26.49 0 0 1-26.5-26.5zM636 444H380a28 28 0 0 1-28-28 28 28 0 0 1 28-28h256a28 28 0 0 1 28 28 28 28 0 0 1-28 28z"  horiz-adv-x="1024" />

    
    <glyph glyph-name="linkProject" unicode="&#59296;" d="M559.36 420.8L624 384l103.36 59.2L663.04 480l-103.68-59.2zM464.64 347.2l32-18.24a32 32 0 0 1 32 0l32 18.24L512 374.4zM464.64 420.8L360.96 480l-64.32-36.8L400 384l64.64 36.8zM192 576l320 182.4L832 576l-103.68-59.2 64-36.8 119.36 68.16a32 32 0 0 1 0 55.68l-384 219.2a32 32 0 0 1-32 0l-384-219.2a32 32 0 0 1 0-55.68L232 480l64 36.8zM360.96 288l-64-36.8 199.36-114.24a32 32 0 0 1 32 0l199.36 114.24-64 36.8L512 201.6zM911.36 411.84L792 480l-64-36.8L832 384l-103.68-59.2 64-36.8 119.36 68.16a32 32 0 0 1-0.32 55.68zM192 384l103.68 59.2L232 480l-119.36-68.16a32 32 0 0 1 0-55.68L232 288l64 36.8zM360.96 480l-64.32 36.8L232 480l64.64-36.8L360.96 480zM663.04 480l64.32-36.8L792 480l-64.64 36.8L663.04 480zM832 192l-320-182.4L192 192l103.68 59.2L232 288l-119.36-68.16a32 32 0 0 1 0-55.68l384-219.2a32 32 0 0 1 32 0l384 219.2a32 32 0 0 1 0 55.68L792 288l-64-36.8zM464.64 420.8L400 384l64.64-36.8L512 374.4l47.36-27.2L624 384l-64.64 36.8-47.36-27.2-47.36 27.2zM360.96 288l-64.32 36.8L232 288l64.64-36.8L360.96 288zM663.04 288l64.32-36.8L792 288l-64.64 36.8L663.04 288z"  horiz-adv-x="1024" />

    
    <glyph glyph-name="fileslink" unicode="&#59295;" d="M768 640h-256a192 192 0 0 1-166.08-96h82.24A128 128 0 0 0 512 576h256a128 128 0 0 0 0-256h-256a128 128 0 0 0-123.52 96h-65.6A192 192 0 0 1 512 256h256a192 192 0 0 1 0 384zM512 192H256a128 128 0 0 0 0 256h256a128 128 0 0 0 123.52-96h65.6A192 192 0 0 1 512 512H256a192 192 0 0 1 0-384h256a192 192 0 0 1 166.08 96h-82.24A128 128 0 0 0 512 192z"  horiz-adv-x="1024" />

    
    <glyph glyph-name="jump" unicode="&#59294;" d="M480 768a32 32 0 0 1 0-64h352v-352a32 32 0 0 1 64 0V768zM690.88 608L192 109.12A32 32 0 1 1 237.12 64L736 562.88A32 32 0 1 1 690.88 608z"  horiz-adv-x="1024" />

    
    <glyph glyph-name="point" unicode="&#59292;" d="M512 384m-128 0a128 128 0 1 1 256 0 128 128 0 1 1-256 0Z"  horiz-adv-x="1024" />

    
    <glyph glyph-name="point_o" unicode="&#59293;" d="M512 448a64 64 0 1 0-64-64 64 64 0 0 0 64 64m0 64a128 128 0 1 1 128-128 128 128 0 0 1-128 128z"  horiz-adv-x="1024" />

    
    <glyph glyph-name="rename_o" unicode="&#59291;" d="M864 512a32 32 0 0 1-32-32v-416H192V704h416a32 32 0 0 1 0 64H160a32 32 0 0 1-32-32v-704a32 32 0 0 1 32-32h704a32 32 0 0 1 32 32V480a32 32 0 0 1-32 32z m-492.48-307.52a32 32 0 0 1 45.44 0L883.52 672a32 32 0 0 1 0 45.44 32 32 0 0 1-45.12 0L371.52 249.6a32 32 0 0 1 0-45.12z"  horiz-adv-x="1024" />

    
    <glyph glyph-name="delete-o" unicode="&#59288;" d="M512 768a64 64 0 0 0 64-64h-128a64 64 0 0 0 64 64zM128 704m32 0l704 0q32 0 32-32l0 0q0-32-32-32l-704 0q-32 0-32 32l0 0q0 32 32 32ZM768 512v-448H256V512h512m32 64H224a32 32 0 0 1-32-32v-512a32 32 0 0 1 32-32h576a32 32 0 0 1 32 32V544a32 32 0 0 1-32 32zM352 448a32 32 0 0 1-32-32v-256a32 32 0 0 1 64 0v256a32 32 0 0 1-32 32zM512 448a32 32 0 0 1-32-32v-256a32 32 0 0 1 64 0v256a32 32 0 0 1-32 32zM672 448a32 32 0 0 1-32-32v-256a32 32 0 0 1 64 0v256a32 32 0 0 1-32 32z"  horiz-adv-x="1024" />

    
    <glyph glyph-name="enter-o" unicode="&#59289;" d="M361.28 173.12L406.72 128l150.4 150.72-150.4 150.4L361.28 384l75.52-75.2H128v-64h304.96zM864 768H352a32 32 0 0 1-32-32v-210.24a13.76 13.76 0 0 1 13.76-13.76h36.48a13.76 13.76 0 0 1 13.76 13.76V704h448v-640H328.64a8.64 8.64 0 0 1-8.64-8.64v-46.72a8.64 8.64 0 0 1 8.64-8.64H864a32 32 0 0 1 32 32V736a32 32 0 0 1-32 32z m-128-160h-192a32 32 0 0 1 0-64h192a32 32 0 0 1 0 64z m0-320h-64a32 32 0 0 1 0-64h64a32 32 0 0 1 0 64z m0 160h-128a32 32 0 0 1 0-64h128a32 32 0 0 1 0 64z"  horiz-adv-x="1024" />

    
    <glyph glyph-name="move1" unicode="&#59282;" d="M928 640H512l-55.04 110.4a32 32 0 0 1-28.8 17.6H96a32 32 0 0 1-32-32v-704a32 32 0 0 1 32-32h832a32 32 0 0 1 32 32V608a32 32 0 0 1-32 32z m-32-576H128V704h280.32l46.4-92.48 17.6-35.52H896zM320 350.08v-64h304.96l-71.68-71.36 45.44-45.44 150.4 150.72-150.4 150.72-45.44-45.44 75.2-75.2H320z"  horiz-adv-x="1024" />

    
    <glyph glyph-name="set2" unicode="&#59283;" d="M512 757.76l320-186.56v-374.4l-320-186.56-320 186.56v374.4l320 186.56m0 69.12a32 32 0 0 1-16-4.16l-352-205.44a32 32 0 0 1-16-27.52v-411.52a32 32 0 0 1 16-27.52l352-205.44a32 32 0 0 1 32 0l352 205.44a32 32 0 0 1 16 27.52V589.76a32 32 0 0 1-16 27.52l-352 205.44a32 32 0 0 1-16 4.16zM512 480a96 96 0 1 0-96-96 96 96 0 0 0 96 96m0 64a160 160 0 1 1 160-160 160 160 0 0 1-160 160z"  horiz-adv-x="1024" />

    
    <glyph glyph-name="rights" unicode="&#59284;" d="M768 256h-224v130.88a192 192 0 1 1-64 0V256H256a128 128 0 0 1-128-128v-128h768v128a128 128 0 0 1-128 128zM384 576a128 128 0 1 0 128-128 128 128 0 0 0-128 128z m448-512H192v64a64 64 0 0 0 64 64h512a64 64 0 0 0 64-64z"  horiz-adv-x="1024" />

    
    <glyph glyph-name="add" unicode="&#59285;" d="M928 640H512l-55.04 110.4a32 32 0 0 1-28.8 17.6H96a32 32 0 0 1-32-32v-704a32 32 0 0 1 32-32h832a32 32 0 0 1 32 32V608a32 32 0 0 1-32 32z m-32-576H128V704h280.32l46.4-92.48 17.6-35.52H896zM640 352h-96v96a32 32 0 0 1-64 0v-96h-96a32 32 0 0 1 0-64h96v-96a32 32 0 0 1 64 0v96h96a32 32 0 0 1 0 64z"  horiz-adv-x="1024" />

    
    <glyph glyph-name="copy1" unicode="&#59286;" d="M800 832H288a32 32 0 0 1 0-64h480v-672a32 32 0 0 1 64 0V800a32 32 0 0 1-32 32z m-128-128H160a32 32 0 0 1-32-32v-704a32 32 0 0 1 32-32h512a32 32 0 0 1 32 32V672a32 32 0 0 1-32 32zM192 0V640h448v-640z m224 480a32 32 0 0 1-32-32v-96H288a32 32 0 0 1 0-64h96v-96a32 32 0 0 1 64 0v96h96a32 32 0 0 1 0 64h-96v96a32 32 0 0 1-32 32z"  horiz-adv-x="1024" />

    
    <glyph glyph-name="people" unicode="&#59287;" d="M512 704a128 128 0 1 0-128-128 128 128 0 0 0 128 128m0 64a192 192 0 1 1 192-192 192 192 0 0 1-192 192zM832-32a32 32 0 0 0-32 32 288 288 0 0 1-576 0 32 32 0 0 0-64 0 352 352 0 0 0 704 0 32 32 0 0 0-32-32z"  horiz-adv-x="1024" />

    
    <glyph glyph-name="vertical_1" unicode="&#59279;" d="M742.4 832H128v-896h768V608zM832 0H192V768h516.8L832 588.16zM398.4 602.56l35.2-53.12L480 580.16v-392.32l-46.4 30.72-35.2-53.12L512 89.6l113.6 75.84-35.2 53.12-46.4-30.72V580.16l46.4-30.72 35.2 53.12L512 678.4l-113.6-75.84z"  horiz-adv-x="1024" />

    
    <glyph glyph-name="horizongtal" unicode="&#59281;" d="M714.88 704L896 570.88V64H128V704h586.88M736 768H64v-768h896V603.52L736 768zM730.56 497.6l-53.12-35.2 30.72-46.4H315.84l30.72 46.4-53.12 35.2L217.6 384l75.84-113.6 53.12 35.2L315.84 352h392.32l-30.72-46.4 53.12-35.2L806.4 384l-75.84 113.6z"  horiz-adv-x="1024" />

    
    <glyph glyph-name="Rotate" unicode="&#59277;" d="M448 320V832H64v-896h896V320z m-64-320H128V768h256v-768z m512 0H448v256h448zM864 448h64A352 352 0 0 1 576 800v-64a288 288 0 0 0 288-288z"  horiz-adv-x="1024" />

    
    <glyph glyph-name="pagebreak" unicode="&#59278;" d="M896 832h-59.2v-192H187.2V832H128v-256h768V832zM128-64h59.2v192h649.6v-192H896v256H128v-256zM256 768h512v-64H256zM256 64h512v-64H256zM235.84 397.44l-146.56 97.6A16 16 0 0 1 64 480v-195.2a16 16 0 0 1 25.28-13.44l146.56 96a16 16 0 0 1 0 30.08zM934.72 495.04l-146.56-97.6a16 16 0 0 1 0-26.88l146.56-96A16 16 0 0 1 960 288v192a16 16 0 0 1-25.28 15.04z"  horiz-adv-x="1024" />

    
    <glyph glyph-name="pagelink" unicode="&#59276;" d="M512 832A448 448 0 1 0 64 384 448 448 0 0 0 512 832m0 64a512 512 0 1 1 512-512A512 512 0 0 1 512 896zM398.72 334.72A64 64 0 0 0 444.16 224l-45.44-45.12a64 64 0 0 0-90.24 0 64 64 0 0 0 0 90.24l45.12 45.44a64 64 0 0 0 45.12 18.56m0 64a128 128 0 0 1-90.24-37.44l-45.44-43.52a128 128 0 0 1 0-181.12 128 128 0 0 1 181.12 0l45.12 45.44a128 128 0 0 1 0 180.8 128 128 0 0 1-90.56 37.44zM672 606.4a64 64 0 0 0 45.12-18.88 64 64 0 0 0 0-90.24L672 451.84a64 64 0 0 0-90.56 90.56l45.44 45.12A64 64 0 0 0 672 606.4m0 64a128 128 0 0 1-90.56-37.44l-46.72-45.44a128 128 0 0 1 0-180.8 128 128 0 0 1 180.8 0l45.44 45.12a128 128 0 0 1 0 181.12A128 128 0 0 1 672 670.4zM602.56 506.56a32 32 0 0 1-22.72-9.28l-181.12-181.12a32 32 0 0 1 0-45.44 32 32 0 0 1 22.72-9.28 32 32 0 0 1 22.72 9.28l181.12 181.12a32 32 0 0 1 0 45.44 32 32 0 0 1-22.72 9.28z"  horiz-adv-x="1024" />

    
    <glyph glyph-name="exist_none" unicode="&#59271;" d="M864 832H416a32 32 0 0 1 0-64h416v-544a32 32 0 0 1 64 0V800a32 32 0 0 1-32 32zM736 704H288a32 32 0 0 1 0-64h416v-544a32 32 0 0 1 64 0V672a32 32 0 0 1-32 32zM608 576H160a32 32 0 0 1-32-32v-576a32 32 0 0 1 32-32h448a32 32 0 0 1 32 32V544a32 32 0 0 1-32 32z"  horiz-adv-x="1024" />

    
    <glyph glyph-name="exist_add" unicode="&#59272;" d="M864 832H416a32 32 0 0 1 0-64h416v-544a32 32 0 0 1 64 0V800a32 32 0 0 1-32 32zM736 704H288a32 32 0 0 1 0-64h416v-544a32 32 0 0 1 64 0V672a32 32 0 0 1-32 32zM608 576H160a32 32 0 0 1-32-32v-576a32 32 0 0 1 32-32h448a32 32 0 0 1 32 32V544a32 32 0 0 1-32 32z m-130.56-338.56h-74.88v-74.88a18.56 18.56 0 1 0-37.12 0v74.88H290.56a18.56 18.56 0 1 0 0 37.12h74.88v74.88a18.56 18.56 0 0 0 37.12 0v-74.88h74.88a18.56 18.56 0 1 0 0-37.12z"  horiz-adv-x="1024" />

    
    <glyph glyph-name="exist_edit" unicode="&#59273;" d="M864 832H416a32 32 0 0 1 0-64h416v-544a32 32 0 0 1 64 0V800a32 32 0 0 1-32 32zM736 704H288a32 32 0 0 1 0-64h416v-544a32 32 0 0 1 64 0V672a32 32 0 0 1-32 32zM384 256m-80 0a80 80 0 1 1 160 0 80 80 0 1 1-160 0ZM608 576H160a32 32 0 0 1-32-32v-576a32 32 0 0 1 32-32h448a32 32 0 0 1 32 32V544a32 32 0 0 1-32 32z m-224-432a112 112 0 1 0 112 112 112 112 0 0 0-112-112z"  horiz-adv-x="1024" />

    
    <glyph glyph-name="exist_delete" unicode="&#59274;" d="M864 832H416a32 32 0 0 1 0-64h416v-544a32 32 0 0 1 64 0V800a32 32 0 0 1-32 32zM736 704H288a32 32 0 0 1 0-64h416v-544a32 32 0 0 1 64 0V672a32 32 0 0 1-32 32zM608 576H160a32 32 0 0 1-32-32v-576a32 32 0 0 1 32-32h448a32 32 0 0 1 32 32V544a32 32 0 0 1-32 32zM290.56 237.44a18.56 18.56 0 1 0 0 37.12h186.88a18.56 18.56 0 1 0 0-37.12z"  horiz-adv-x="1024" />

    
    <glyph glyph-name="compare" unicode="&#59270;" d="M640 256l128 128-128 128v-96h-256v96l-128-128 128-128v96h256v-96zM896 768h-192a64 64 0 0 1-64-64v-128h64V704h192v-640h-192v128h-64v-128a64 64 0 0 1 64-64h192a64 64 0 0 1 64 64V704a64 64 0 0 1-64 64zM320 64H128V704h192v-128h64V704a64 64 0 0 1-64 64H128a64 64 0 0 1-64-64v-640a64 64 0 0 1 64-64h192a64 64 0 0 1 64 64v128h-64z"  horiz-adv-x="1024" />

    
    <glyph glyph-name="cut1" unicode="&#59269;" d="M384 832h64v-64h-64zM64 0v-64h64v128H64v-64zM64 320h64v-64H64zM64 192h64v-64H64zM768 832h64v-64h-64zM64 448h64v-64H64zM640 832h64v-64h-64zM512 832h64v-64h-64zM896 832v-128h64V832h-64zM256 832h64v-64H256zM896 640h64v-64h-64zM192 0h64v-64H192zM64 704h64v-64H64zM192 832H64v-64h128V832zM64 576h64v-64H64zM384 512v-512h-64v-64h640V512H384z m512-128v-384H448V448h448z"  horiz-adv-x="1024" />

    
    <glyph glyph-name="circle-o1" unicode="&#59267;" d="M512 576a192 192 0 1 0-192-192 192 192 0 0 0 192 192m0 64a256 256 0 1 1 256-256 256 256 0 0 1-256 256z"  horiz-adv-x="1024" />

    
    <glyph glyph-name="circle1" unicode="&#59268;" d="M512 384m-256 0a256 256 0 1 1 512 0 256 256 0 1 1-512 0Z"  horiz-adv-x="1024" />

    
    <glyph glyph-name="columnAttributes" unicode="&#59266;" d="M896 704H128v-704h768V704z m-256-640V640h192v-576z m-192 0V640h128v-576z m-256 0V640h192v-576zM320 576H256v-64h64v64zM320 448H256v-64h64v64zM320 320H256v-64h64v64zM320 192H256v-64h64v64zM768 576h-64v-64h64v64zM768 448h-64v-64h64v64zM768 320h-64v-64h64v64zM768 192h-64v-64h64v64z"  horiz-adv-x="1024" />

    
    <glyph glyph-name="defaultfold" unicode="&#59263;" d="M800 256H224a32 32 0 0 1 0-64h576a32 32 0 0 1 0 64zM736 128H288a32 32 0 0 1 0-64h448a32 32 0 0 1 0 64zM864 640H160a32 32 0 0 1-32-32v-256a32 32 0 0 1 32-32h704a32 32 0 0 1 32 32V608a32 32 0 0 1-32 32z m-256-192h-192a32 32 0 0 0 0 64h192a32 32 0 0 0 0-64z"  horiz-adv-x="1024" />

    
    <glyph glyph-name="defaultunfold" unicode="&#59264;" d="M864 704H160a32 32 0 0 1-32-32v-256a32 32 0 0 1 32-32h704a32 32 0 0 1 32 32V672a32 32 0 0 1-32 32z m-256-192h-192a32 32 0 0 0 0 64h192a32 32 0 0 0 0-64zM864 320H160a32 32 0 0 1-32-32v-256a32 32 0 0 1 32-32h704a32 32 0 0 1 32 32v256a32 32 0 0 1-32 32z m-256-192h-192a32 32 0 0 0 0 64h192a32 32 0 0 0 0-64z"  horiz-adv-x="1024" />

    
    <glyph glyph-name="set-line" unicode="&#59265;" d="M599 804l76.02-147 170.04 9.72L932 521.28 838.22 384 932 246.72000000000003l-87-145.44-169.86 9.78L598.94-36H425.06l-76.2 147.06-169.92-9.78L92 246.72000000000003 185.72 384 92 521.28l87 145.44 169.92-9.72L425.06 804h173.88z m-40.2-66H465.14L387.92 588.6600000000001 215 598.62l-44.76-75L265.7 384l-95.4-139.56 44.76-74.94 172.74 9.96L465.14 30h93.6l77.4 149.4 172.74-9.9 44.76 74.88L758.3 384l95.34 139.68-44.76 74.94-172.8-9.96L558.8 738zM512 534a150 150 0 1 0 0-300 150 150 0 0 0 0 300z m0-60a90 90 0 1 1 0-180 90 90 0 0 1 0 180z"  horiz-adv-x="1024" />

    
    <glyph glyph-name="rightdrawer" unicode="&#59261;" d="M896 704v-704H128V704h768z m-64-64h-192v-576h192V640zM576 640H192v-576h384V640z m192-448v-64h-64v64h64z m0 128v-64h-64V320h64z m0 128v-64h-64V448h64z m0 128v-64h-64V576h64z"  horiz-adv-x="1024" />

    
    <glyph glyph-name="outline" unicode="&#59262;" d="M896 704v-704H128V704h768z m-64-64H192v-576h640V640zM256 576h320v-64H256zM384 448h320v-64H384zM384 320h320v-64H384zM384 192h320v-64H384zM384 576h64v-448H384z"  horiz-adv-x="1024" />

    
    <glyph glyph-name="delete" unicode="&#59257;" d="M588.8 768l-0.064-76.8H896v-153.6h-76.8V0H204.8V537.6H128V691.2h307.2V768h153.6zM416 448a32 32 0 0 1-32-32v-256a32 32 0 1 1 64 0v256a32 32 0 0 1-32 32z m192 0a32 32 0 0 1-32-32v-256a32 32 0 1 1 64 0v256a32 32 0 0 1-32 32z"  horiz-adv-x="1024" />

    
    <glyph glyph-name="additem" unicode="&#59258;" d="M896 768v-496.96a192 192 0 1 0-271.04-271.168V0L128 0V768h768z m-128-512a128 128 0 1 1 0-256 128 128 0 0 1 0 256z m0-32a32 32 0 0 0 32-32v-32h32a32 32 0 1 0 0-64h-32.064l0.064-32a32 32 0 1 0-64 0l-0.064 32H704a32 32 0 1 0 0 64h32V192a32 32 0 0 0 32 32z m64 85.056V704H192v-640h394.944a191.68 191.68 0 0 0-3.072 118.528L586.88 192H256V320h512c22.464 0 44.032-3.84 64-10.944zM768 576v-128H256V576h512z"  horiz-adv-x="1024" />

    
    <glyph glyph-name="baseline" unicode="&#59259;" d="M160 704a32 32 0 0 0 31.488-26.24L192 672v-595.2h735.808a32 32 0 0 0 31.488-26.24l0.512-5.76a32 32 0 0 0-26.24-31.488l-5.76-0.512H128V672a32 32 0 0 0 32 32z m753.088-110.144a32 32 0 0 0 12.288-39.104l-2.688-5.12-211.328-328.704-192.704 174.848-170.752-211.968a32 32 0 0 0-40.192-8l-4.8 3.2a32 32 0 0 0-8.064 40.192l3.2 4.8 213.376 264.768 186.944-169.6 170.496 265.088a32 32 0 0 0 44.224 9.6z"  horiz-adv-x="1024" />

    
    <glyph glyph-name="addtext" unicode="&#59260;" d="M896 768v-496.96a192 192 0 1 0-271.04-271.168V0L128 0V768h768z m-128-512a128 128 0 1 1 0-256 128 128 0 0 1 0 256z m0-32a32 32 0 0 0 32-32v-32h32a32 32 0 1 0 0-64h-32.064l0.064-32a32 32 0 1 0-64 0l-0.064 32H704a32 32 0 1 0 0 64h32V192a32 32 0 0 0 32 32z m64 85.056V704H192v-640h394.944a191.68 191.68 0 0 0 2.432 134.592l-0.512-1.28c-26.688 15.936-51.2 33.024-73.6 51.2-56.256-48.832-124.416-86.016-204.096-111.168l-24.192-7.168-30.976 49.92c87.936 22.272 160.896 57.024 218.432 104.832A483.648 483.648 0 0 0 356.8 471.04l-6.784 21.184H265.984v56.512h218.88a373.888 373.888 0 0 1-39.232 57.088l-11.584 13.44L492.096 640c15.936-20.416 30.784-43.968 44.608-70.656l10.112-20.544h209.024v-56.512h-83.52c-26.496-81.408-65.216-149.312-116.096-204.16 18.816-14.656 39.04-28.48 60.8-41.6l1.152 1.536a191.616 191.616 0 0 0 213.888 60.992zM612.672 492.288h-207.36a430.08 430.08 0 0 1 110.08-168.832c43.136 46.72 75.712 103.168 97.28 168.832z"  horiz-adv-x="1024" />

    
    <glyph glyph-name="moderator" unicode="&#59254;" d="M448 576m-192 0a192 192 0 1 1 384 0 192 192 0 1 1-384 0ZM604.16 286.4A379.84 379.84 0 0 1 448 320 384 384 0 0 1 64-57.28a6.72 6.72 0 0 1 6.72-6.72H601.6a6.4 6.4 0 0 1 6.4 6.4V280.64a6.4 6.4 0 0 1-3.84 5.76zM953.6 384h-275.2a6.4 6.4 0 0 1-6.4-6.4v-435.2a6.4 6.4 0 0 1 6.4-6.4h35.2a6.4 6.4 0 0 1 6.4 6.4V192h233.6a6.4 6.4 0 0 1 6.4 6.4v179.2a6.4 6.4 0 0 1-6.4 6.4z"  horiz-adv-x="1024" />

    
    <glyph glyph-name="engineer" unicode="&#59255;" d="M448 576m-192 0a192 192 0 1 1 384 0 192 192 0 1 1-384 0ZM604.16 286.4A379.84 379.84 0 0 1 448 320 384 384 0 0 1 64-57.28a6.72 6.72 0 0 1 6.72-6.72H601.6a6.4 6.4 0 0 1 6.4 6.4V280.64a6.4 6.4 0 0 1-3.84 5.76zM953.6 384h-275.2a6.4 6.4 0 0 1-6.4-6.4v-435.2a6.4 6.4 0 0 1 6.4-6.4h275.2a6.4 6.4 0 0 1 6.4 6.4V377.6a6.4 6.4 0 0 1-6.4 6.4zM896 16h-160a16 16 0 0 0 0 32h160a16 16 0 0 0 0-32z m0 90.56h-160a16 16 0 0 0-16 16 16 16 0 0 0 16 16h160a16 16 0 0 0 16-16 16 16 0 0 0-16-16z m0 90.88h-160a16 16 0 0 0-16 16 16 16 0 0 0 16 16h160a16 16 0 0 0 16-16 16 16 0 0 0-16-16zM896 288h-160a16 16 0 0 0 0 32h160a16 16 0 0 0 0-32z"  horiz-adv-x="1024" />

    
    <glyph glyph-name="linenumber" unicode="&#59253;" d="M320 704m32 0l384 0q32 0 32-32l0 0q0-32-32-32l-384 0q-32 0-32 32l0 0q0 32 32 32ZM320 512m32 0l576 0q32 0 32-32l0 0q0-32-32-32l-576 0q-32 0-32 32l0 0q0 32 32 32ZM320 320m32 0l384 0q32 0 32-32l0 0q0-32-32-32l-384 0q-32 0-32 32l0 0q0 32 32 32ZM320 128m32 0l576 0q32 0 32-32l0 0q0-32-32-32l-576 0q-32 0-32 32l0 0q0 32 32 32ZM160 672m-64 0a64 64 0 1 1 128 0 64 64 0 1 1-128 0ZM160 480m-64 0a64 64 0 1 1 128 0 64 64 0 1 1-128 0ZM160 288m-64 0a64 64 0 1 1 128 0 64 64 0 1 1-128 0ZM160 96m-64 0a64 64 0 1 1 128 0 64 64 0 1 1-128 0Z"  horiz-adv-x="1024" />

    
    <glyph glyph-name="file-o1" unicode="&#59251;" d="M672 768l160-213.44V0H192V768h480m0 64H192a64 64 0 0 1-64-64v-768a64 64 0 0 1 64-64h640a64 64 0 0 1 64 64V554.56a64 64 0 0 1-12.8 38.4l-160 213.44A64 64 0 0 1 672 832zM672 448H352a32 32 0 0 1 0-64h320a32 32 0 0 1 0 64zM672 256H352a32 32 0 0 1 0-64h320a32 32 0 0 1 0 64z"  horiz-adv-x="1024" />

    
    <glyph glyph-name="file-s-sign" unicode="&#59252;" d="M883.2 592.96l-160 213.44A64 64 0 0 1 672 832H192a64 64 0 0 1-64-64v-768a64 64 0 0 1 64-64h640a64 64 0 0 1 64 64V554.56a64 64 0 0 1-12.8 38.4z m-188.48-231.68L480 146.88l-150.72 150.4a32 32 0 0 0 45.44 45.44l105.28-105.6 169.28 169.6a32 32 0 0 0 45.44-45.44z"  horiz-adv-x="1024" />

    
    <glyph glyph-name="file-o-s-sign" unicode="&#59250;" d="M672 768l160-213.44V0H192V768h480m0 64H192a64 64 0 0 1-64-64v-768a64 64 0 0 1 64-64h640a64 64 0 0 1 64 64V554.56a64 64 0 0 1-12.8 38.4l-160 213.44A64 64 0 0 1 672 832zM480 146.88l-150.72 150.4a32 32 0 0 0 45.44 45.44l105.28-105.6 169.28 169.6a32 32 0 0 0 45.44-45.44z"  horiz-adv-x="1024" />

    
    <glyph glyph-name="comment-s-plus-mid-none" unicode="&#59248;" d="M896 648.64h-256l-113.28 113.28a21.12 21.12 0 0 1-29.44 0L384 648.64H128a64 64 0 0 1-64-64v-512a64 64 0 0 1 64-64h768a64 64 0 0 1 64 64v512a64 64 0 0 1-64 64z"  horiz-adv-x="1024" />

    
    <glyph glyph-name="comment-s-plus-topleft-none" unicode="&#59249;" d="M896 640H256L88.96 751.36a16 16 0 0 1-24.96-13.12V64a64 64 0 0 1 64-64h768a64 64 0 0 1 64 64V576a64 64 0 0 1-64 64z"  horiz-adv-x="1024" />

    
    <glyph glyph-name="comment-s-plus-topleft" unicode="&#59246;" d="M896 640H256L88.96 751.36a16 16 0 0 1-24.96-13.12V64a64 64 0 0 1 64-64h768a64 64 0 0 1 64 64V576a64 64 0 0 1-64 64z m-230.4-358.4h-115.2v-115.2a38.4 38.4 0 0 0-76.8 0v115.2h-115.2a38.4 38.4 0 0 0 0 76.8h115.2v115.2a38.4 38.4 0 0 0 76.8 0v-115.2h115.2a38.4 38.4 0 0 0 0-76.8z"  horiz-adv-x="1024" />

    
    <glyph glyph-name="comment-s-plus-mid" unicode="&#59247;" d="M896 648.64h-256l-113.28 113.28a21.12 21.12 0 0 1-29.44 0L384 648.64H128a64 64 0 0 1-64-64v-512a64 64 0 0 1 64-64h768a64 64 0 0 1 64 64v512a64 64 0 0 1-64 64zM665.6 281.6h-115.2v-115.2a38.4 38.4 0 0 0-76.8 0v115.2h-115.2a38.4 38.4 0 0 0 0 76.8h115.2v115.2a38.4 38.4 0 0 0 76.8 0v-115.2h115.2a38.4 38.4 0 0 0 0-76.8z"  horiz-adv-x="1024" />

    
    <glyph glyph-name="withoutcomment" unicode="&#59242;" d="M64 704m32 0l832 0q32 0 32-32l0 0q0-32-32-32l-832 0q-32 0-32 32l0 0q0 32 32 32ZM64 512m32 0l832 0q32 0 32-32l0 0q0-32-32-32l-832 0q-32 0-32 32l0 0q0 32 32 32ZM64 320m32 0l512 0q32 0 32-32l0 0q0-32-32-32l-512 0q-32 0-32 32l0 0q0 32 32 32ZM64 128m32 0l512 0q32 0 32-32l0 0q0-32-32-32l-512 0q-32 0-32 32l0 0q0 32 32 32Z"  horiz-adv-x="1024" />

    
    <glyph glyph-name="withcomment" unicode="&#59244;" d="M896 704H448a64 64 0 0 1-64-64v-644.16a32 32 0 0 1 49.6-26.56L576 64h320a64 64 0 0 1 64 64V640a64 64 0 0 1-64 64zM576 320a64 64 0 1 0 64 64 64 64 0 0 0-64-64z m192 0a64 64 0 1 0 64 64 64 64 0 0 0-64-64zM64 704m32 0l192 0q32 0 32-32l0 0q0-32-32-32l-192 0q-32 0-32 32l0 0q0 32 32 32ZM64 512m32 0l192 0q32 0 32-32l0 0q0-32-32-32l-192 0q-32 0-32 32l0 0q0 32 32 32ZM64 320m32 0l192 0q32 0 32-32l0 0q0-32-32-32l-192 0q-32 0-32 32l0 0q0 32 32 32ZM64 128m32 0l192 0q32 0 32-32l0 0q0-32-32-32l-192 0q-32 0-32 32l0 0q0 32 32 32Z"  horiz-adv-x="1024" />

    
    <glyph glyph-name="withcomment-o" unicode="&#59245;" d="M896 640v-512H556.48l-16-10.88L448 55.68V640h448m0 64H448a64 64 0 0 1-64-64v-644.16a32 32 0 0 1 32-32 30.08 30.08 0 0 1 17.6 5.44L576 64h320a64 64 0 0 1 64 64V640a64 64 0 0 1-64 64zM64 704m32 0l192 0q32 0 32-32l0 0q0-32-32-32l-192 0q-32 0-32 32l0 0q0 32 32 32ZM64 512m32 0l192 0q32 0 32-32l0 0q0-32-32-32l-192 0q-32 0-32 32l0 0q0 32 32 32ZM64 320m32 0l192 0q32 0 32-32l0 0q0-32-32-32l-192 0q-32 0-32 32l0 0q0 32 32 32ZM64 128m32 0l192 0q32 0 32-32l0 0q0-32-32-32l-192 0q-32 0-32 32l0 0q0 32 32 32ZM576 384m-64 0a64 64 0 1 1 128 0 64 64 0 1 1-128 0ZM768 384m-64 0a64 64 0 1 1 128 0 64 64 0 1 1-128 0Z"  horiz-adv-x="1024" />

    
    <glyph glyph-name="comment-s-o" unicode="&#59240;" d="M896 640v-512H236.48l-16-10.88L128 55.67999999999995V640h768m0 64H128a64 64 0 0 1-64-64v-644.16a32 32 0 0 1 32-32 30.08 30.08 0 0 1 17.6 4.16L256 64h640a64 64 0 0 1 64 64V640a64 64 0 0 1-64 64zM320 384m-64 0a64 64 0 1 1 128 0 64 64 0 1 1-128 0ZM512 384m-64 0a64 64 0 1 1 128 0 64 64 0 1 1-128 0ZM704 384m-64 0a64 64 0 1 1 128 0 64 64 0 1 1-128 0Z"  horiz-adv-x="1024" />

    
    <glyph glyph-name="comment-s-plus-o" unicode="&#59241;" d="M896 640v-512H236.48l-16-10.88L128 55.67999999999995V640h768m0 64H128a64 64 0 0 1-64-64v-644.16a32 32 0 0 1 32-32 30.08 30.08 0 0 1 17.6 4.16L256 64h640a64 64 0 0 1 64 64V640a64 64 0 0 1-64 64zM665.6 345.6h-115.2v-115.2a38.4 38.4 0 0 0-76.8 0v115.2h-115.2a38.4 38.4 0 0 0 0 76.8h115.2v115.2a38.4 38.4 0 0 0 76.8 0v-115.2h115.2a38.4 38.4 0 0 0 0-76.8z"  horiz-adv-x="1024" />

    
    <glyph glyph-name="comment-s" unicode="&#59237;" d="M896 704H128a64 64 0 0 1-64-64v-644.16a32 32 0 0 1 49.6-27.84L256 64h640a64 64 0 0 1 64 64V640a64 64 0 0 1-64 64zM320 320a64 64 0 1 0 64 64 64 64 0 0 0-64-64z m192 0a64 64 0 1 0 64 64 64 64 0 0 0-64-64z m192 0a64 64 0 1 0 64 64 64 64 0 0 0-64-64z"  horiz-adv-x="1024" />

    
    <glyph glyph-name="comment-s-plus" unicode="&#59233;" d="M896 704H128a64 64 0 0 1-64-64v-644.16a32 32 0 0 1 49.6-27.84L256 64h640a64 64 0 0 1 64 64V640a64 64 0 0 1-64 64z m-230.4-358.4h-115.2v-115.2a38.4 38.4 0 0 0-76.8 0v115.2h-115.2a38.4 38.4 0 0 0 0 76.8h115.2v115.2a38.4 38.4 0 0 0 76.8 0v-115.2h115.2a38.4 38.4 0 0 0 0-76.8z"  horiz-adv-x="1024" />

    
    <glyph glyph-name="xinxitishitubiao1" unicode="&#59236;" d="M794.4 795.1c-88.4 0-164.9-50.9-201.7-125H180c-97.3 0-176.5-79.2-176.5-176.5v-294.9c0-97.3 79.2-176.5 176.5-176.5h67.9v-83.8l224.5 83.8H764c97.3 0 176.5 79.2 176.5 176.5V398.4c48.5 41.3 79.2 102.8 79.2 171.5-0.1 124.4-100.9 225.2-225.3 225.2z m4.2-189.4c23.2 0 42-18.8 42-42s-18.8-42-42-42-42 18.8-42 42c-0.1 23.1 18.8 42 42 42z m-125.6 0c23.2 0 42-18.8 42-42s-18.8-42-42-42-42 18.8-42 42c-0.1 23.1 18.7 42 42 42z m219.4-407c0-70.9-57.6-128.5-128.5-128.5H463.7l-167.8-62.7v62.7H180c-70.9 0-128.5 57.6-128.5 128.5V493.6c0 70.9 57.6 128.5 128.5 128.5h395.3c-4-16.7-6.1-34.2-6.1-52.2 0-124.4 100.8-225.2 225.2-225.2 35.1 0 68.4 8 98 22.4v-168.4z m31.8 322.9c-23.2 0-42 18.8-42 42s18.8 42 42 42 42-18.8 42-42c0.1-23.2-18.8-42-42-42z"  horiz-adv-x="1024" />

    
    <glyph glyph-name="DING_b" unicode="&#59232;" d="M455.424 194.19733333l-215.424-245.12 104.576 309.12 110.848-64z m422.272 347.392l-32-55.424-75.968 43.904-116.032-376.448-443.392 256 267.968 288.64-75.968 43.904 32 55.424 443.392-256z m-164.864 21.312L535.104 665.49333333 311.68 424.98133333l304.448-175.808 96.64 313.728z"  horiz-adv-x="1024" />

    
    <glyph glyph-name="DING" unicode="&#59229;" d="M576 256l-64-320-64 320h128z m192 512v-64h-87.744L768 320H256l87.744 384H256V768h512zM614.592 704H409.344L336.192 384h351.552L614.592 704z"  horiz-adv-x="1024" />

    
    <glyph glyph-name="zhishi" unicode="&#59228;" d="M512-64c-89.6 0-160 70.4-160 160S422.4 256 512 256s160-70.4 160-160S601.6-64 512-64z m0 256c-51.2 0-96-44.8-96-96S460.8 0 512 0s96 44.8 96 96S563.2 192 512 192zM729.6 550.4L576 518.4V819.2c0 6.4-6.4 12.8-12.8 12.8H460.8c-6.4 0-12.8-6.4-12.8-12.8v-300.8l-153.6 32c-6.4 0-6.4-6.4-6.4-6.4L505.6 320h12.8l217.6 217.6c0 6.4 0 12.8-6.4 12.8z"  horiz-adv-x="1024" />

    
    <glyph glyph-name="tianjiahengge" unicode="&#59226;" d="M921.6 529.9200000000001H551.04c-17.92 0-32 14.08-32 32s14.08 32 32 32h370.56c17.92 0 32-14.08 32-32s-14.08-32-32-32zM921.6 359.03999999999996H551.04c-17.92 0-32 14.08-32 32s14.08 32 32 32h370.56c17.92 0 32-14.08 32-32s-14.08-32-32-32zM931.84 188.79999999999995H92.16c-15.36 0-28.16 14.08-28.16 32s12.8 32 28.16 32h840.32c15.36 0 28.16-14.08 28.16-32s-13.44-32-28.8-32zM931.84 17.91999999999996H92.16c-15.36 0-28.16 14.08-28.16 32s12.8 32 28.16 32h840.32c15.36 0 28.16-14.08 28.16-32s-13.44-32-28.8-32zM422.4 476.8h-320c-17.92 0-32 14.08-32 32s14.08 32 32 32h320c17.92 0 32-14.08 32-32s-14.08-32-32-32zM262.4 316.79999999999995c-17.92 0-32 14.08-32 32v320c0 17.92 14.08 32 32 32s32-14.08 32-32v-320c0-17.92-14.08-32-32-32z"  horiz-adv-x="1024" />

    
    <glyph glyph-name="folder-o1" unicode="&#59224;" d="M340.3 704c21.65 0 42.03-12.07 53.19-31.49l53.71-93.48a64.003 64.003 0 0 1 55.49-32.11h384.77c40 0 72.54-33.93 72.54-75.64v-331.64c0-41.71-32.54-75.64-72.54-75.64H136.54c-40 0-72.54 33.93-72.54 75.64V628.36C64 670.0699999999999 96.54 704 136.54 704H340.3m0 64H136.54C61.13 768 0 705.48 0 628.36v-488.73C0 62.51999999999998 61.13 0 136.54 0h750.93c75.41 0 136.54 62.52 136.54 139.64V471.27c0 77.12-61.13 139.64-136.54 139.64H502.7l-53.71 93.48C426.34 743.8 384.99 768 340.3 768z"  horiz-adv-x="1024" />

    
    <glyph glyph-name="tianjiapinglun" unicode="&#59223;" d="M609.83 161.61a226.886 226.886 0 0 0-25.5 30.39H157.55c-16.14 0-29.28 13.13-29.28 29.28V610.72c0 16.14 13.13 29.28 29.28 29.28H805c16.14 0 29.28-13.13 29.28-29.28v-76.58c22.84-7.01 44.41-17.69 64-31.72v108.3c0 51.43-41.84 93.28-93.28 93.28H157.55c-51.43 0-93.28-41.84-93.28-93.28v-389.45c0-51.43 41.84-93.28 93.28-93.28h495.13a225.586 225.586 0 0 0-42.85 33.62zM768.22 512c51.28 0 99.5-19.97 135.76-56.24 36.26-36.26 56.24-84.48 56.24-135.76s-19.97-99.5-56.24-135.76C867.72 147.97000000000003 819.5 128 768.22 128s-99.5 19.97-135.76 56.24C596.2 220.5 576.22 268.72 576.22 320s19.97 99.5 56.24 135.76C668.72 492.03 716.93 512 768.22 512m0 64c-141.39 0-256-114.62-256-256s114.61-256 256-256c141.38 0 256 114.62 256 256s-114.62 256-256 256zM416 448H223c-17.67 0-32 14.33-32 32s14.33 32 32 32h193c17.67 0 32-14.33 32-32s-14.33-32-32-32zM352 320H223c-17.67 0-32 14.33-32 32s14.33 32 32 32h129c17.67 0 32-14.33 32-32s-14.33-32-32-32zM864.22 289h-192c-17.12 0-31 13.88-31 31 0 17.12 13.88 31 31 31h192c17.12 0 31-13.88 31-31 0-17.12-13.88-31-31-31zM799.22 416v-192c0-17.12-13.88-31-31-31-17.12 0-31 13.88-31 31V416c0 17.12 13.88 31 31 31 17.12 0 31-13.88 31-31z"  horiz-adv-x="1024" />

    
    <glyph glyph-name="dangqian" unicode="&#59221;" d="M512-6.399999999999977a390.4 390.4 0 1 0 0 780.8 390.4 390.4 0 0 0 0-780.8z m0 64a326.4 326.4 0 1 1 0 652.8 326.4 326.4 0 0 1 0-652.8zM870.4 352a32 32 0 1 0 0 64h102.4a32 32 0 1 0 0-64h-102.4zM512 384m-204.8 0a204.8 204.8 0 1 1 409.6 0 204.8 204.8 0 1 1-409.6 0ZM544 742.4a32 32 0 1 0-64 0V844.8a32 32 0 1 0 64 0v-102.4zM480 25.600000000000023a32 32 0 1 0 64 0v-102.4a32 32 0 1 0-64 0v102.4zM153.6 416a32 32 0 1 0 0-64H51.2a32 32 0 1 0 0 64h102.4z"  horiz-adv-x="1024" />

    
    <glyph glyph-name="dingwei" unicode="&#59220;" d="M512 896C282.88 896 97.92 710.4 97.92 481.92c0-51.2 8.96-99.84 25.6-144.64 17.92-48.64 44.8-92.8 79.36-130.56L512-128l311.68 336c33.28 37.12 59.52 81.28 77.44 129.28 16.64 44.8 25.6 93.44 25.6 144.64C926.72 710.4 741.12 896 512 896z m0-576.64a160 160 0 0 0 0 320 160 160 0 0 0 0-320z"  horiz-adv-x="1024" />

    
    <glyph glyph-name="A4" unicode="&#59218;" d="M720 605.44h-416c-17.92 0-32 14.08-32 32s14.08 32 32 32h416c17.92 0 32-14.08 32-32s-14.08-32-32-32zM698.88-12.159999999999968l141.44 141.44 55.68 55.68V771.84c0 31.36-24.96 56.32-55.68 56.32H183.68c-30.72 0-55.68-24.96-55.68-56.32v-783.36c0-31.36 24.96-56.32 55.68-56.32h459.52l55.68 55.68z m-28.8 65.92v103.68h119.68l-119.68-103.68zM214.4 764.16h595.2c17.28 0 22.4-5.76 22.4-23.04v-528H614.4v-216.96H214.4c-16.64 0-22.4 5.76-22.4 23.04V741.76c0 17.28 5.76 22.4 22.4 22.4z"  horiz-adv-x="1024" />

    
    <glyph glyph-name="A3" unicode="&#59214;" d="M759.04 87.67999999999995l144 141.44 56.96 55.04V679.6800000000001c0 30.72-25.6 56.32-56.96 56.32H120.96c-31.36 0-56.96-24.96-56.96-56.32v-591.36c0-30.72 25.6-56.32 56.96-56.32h581.12l56.96 55.68z m-29.44 65.92V257.28h122.24L729.6 153.60000000000002zM152.32 672h719.36c17.28 0 24.32-5.76 24.32-23.04v-336.64h-223.36v-216.96H152.32c-17.28 0.64-24.32 6.4-24.32 23.68V648.96c0 17.28 7.04 23.04 24.32 23.04zM770.56 520.96H253.44c-17.92 0-32.64 14.08-32.64 32s14.72 32 32.64 32h517.76c17.92 0 32.64-14.08 32.64-32s-15.36-32-33.28-32z"  horiz-adv-x="1024" />

    
    <glyph glyph-name="zhuizong" unicode="&#59209;" d="M512 513.92c-71.68 0-129.92-58.24-129.92-129.92 0-71.68 58.24-129.92 129.92-129.92 71.68 0 129.92 58.24 129.92 129.92 0 71.68-58.24 129.92-129.92 129.92zM944 416h-76.8A357.312 357.312 0 0 1 544 739.2v76.8c0 17.92-14.08 32-32 32s-32-14.08-32-32v-76.8A357.888 357.888 0 0 1 156.8 416h-76.8c-17.92 0-32-14.08-32-32s14.08-32 32-32h76.8a357.312 357.312 0 0 1 323.2-323.2v-76.8c0-17.92 14.08-32 32-32s32 14.08 32 32v76.8a357.312 357.312 0 0 1 323.2 323.2h76.8c17.92 0 32 14.08 32 32s-14.08 32-32 32z m-191.36-64h48.64a290.048 290.048 0 0 0-257.28-257.28v48.64c0 17.92-14.08 32-32 32s-32-14.08-32-32v-48.64A290.048 290.048 0 0 0 222.72 352h48.64c17.92 0 32 14.08 32 32s-14.08 32-32 32h-48.64c14.72 135.68 121.6 242.56 257.28 257.28v-48.64c0-17.92 14.08-32 32-32s32 14.08 32 32v48.64c135.68-14.72 242.56-121.6 257.28-257.28h-48.64c-17.92 0-32-14.08-32-32s14.72-32 32-32z"  horiz-adv-x="1024" />

    
    <glyph glyph-name="shixiao" unicode="&#59207;" d="M938.24 64H85.76C38.4 64 0 102.4 0 149.12V618.88C0 665.6 38.4 704 85.76 704h853.12C985.6 704 1024 665.6 1024 618.88v-469.76c0-46.72-38.4-85.12-85.76-85.12zM85.76 640c-12.16 0-21.76-9.6-21.76-21.12v-469.76c0-11.52 9.6-21.12 21.76-21.12h853.12c12.16 0 21.76 9.6 21.76 21.12V618.88a22.4 22.4 0 0 1-22.4 21.12H85.76z"  horiz-adv-x="1024" />

    
    <glyph glyph-name="zidongfuyong" unicode="&#59206;" d="M371.84 179.84h195.2c17.92 0 32 14.08 32 32s-14.08 32-32 32H371.84c-17.92 0-32-14.08-32-32s14.72-32 32-32zM371.84 71.04h328.32c17.92 0 32 14.08 32 32s-14.08 32-32 32H371.84c-17.92 0-32-14.08-32-32s14.72-32 32-32zM913.28 709.12h-163.84V782.08c0 17.92-14.08 32-32 32H110.72c-17.92 0-32-14.08-32-32v-699.52c0-17.92 14.08-32 32-32H211.2v-64c0-17.92 14.08-32 32-32h669.44c17.92 0 32 14.08 32 32V677.12c0.64 17.92-14.08 32-31.36 32z m-770.56-595.2V750.08h542.08v-40.32H243.2c-17.92 0-32-14.08-32-32v-563.2H142.72z m738.56-96H275.2v627.2h605.44v-627.2zM609.28 306.56c8.32 0 14.08 2.56 17.92 7.04s7.68 14.72 12.8 28.16l13.44 35.2h112l13.44-34.56 6.4-14.72c2.56-5.76 4.48-9.6 7.04-12.16s4.48-5.12 7.68-6.4 7.04-2.56 11.52-2.56c7.68 0 14.08 2.56 19.2 7.68 5.12 5.12 8.32 10.88 8.32 17.28s-2.56 16-8.32 29.44l-71.68 177.28c-3.2 8.96-6.4 16-8.32 21.12s-5.12 10.24-8.32 14.72-7.68 8.32-12.8 11.52-11.52 4.48-19.2 4.48-14.08-1.28-19.2-4.48-9.6-7.04-12.8-11.52-6.4-10.88-8.96-17.92-5.12-13.44-7.04-18.56l-70.4-178.56c-2.56-7.04-5.12-12.8-6.4-16.64s-3.2-6.4-3.2-10.24c0-6.4 2.56-12.16 8.32-17.28s11.52-8.32 18.56-8.32z m99.2 225.92l41.6-113.28h-81.92l40.32 113.28z"  horiz-adv-x="1024" />

    
    <glyph glyph-name="tongbu" unicode="&#59203;" d="M465.92-26.24H182.4c-41.6 0-75.52 31.36-75.52 69.76V724.48c0 38.4 33.92 69.76 75.52 69.76h566.4c41.6 0 75.52-31.36 75.52-69.76v-266.24c0-17.92-14.08-32-32-32s-32 14.08-32 32V724.48c0 1.28-3.84 5.76-11.52 5.76H182.4c-7.04 0-11.52-4.48-11.52-5.76v-680.96c0-1.28 3.84-5.76 11.52-5.76h283.52c17.92 0 32-14.08 32-32s-14.72-32-32-32zM496.64 574.72H264.32c-17.92 0-32 14.08-32 32s14.08 32 32 32h232.32c17.92 0 32-14.08 32-32s-14.08-32-32-32zM677.12 429.44H264.32c-17.92 0-32 14.08-32 32s14.08 32 32 32h412.16c17.92 0 32-14.08 32-32s-14.08-32-31.36-32zM909.44 157.44a212.48 212.48 0 0 1-58.88 177.92 211.968 211.968 0 0 1-257.92 32c-15.36-9.6-20.48-28.8-11.52-44.16 8.96-15.36 28.8-19.84 44.16-10.88 58.24 34.56 132.48 25.6 179.84-21.76 29.44-29.44 44.16-70.4 41.6-112l-40.96 13.44 49.28-98.56 98.56 49.28-44.16 14.72zM775.68 58.88c-58.24-34.56-132.48-25.6-179.84 21.76-30.08 30.08-44.16 69.76-41.6 112l40.96-14.08-48.64 98.56-98.56-48.64 43.52-14.72c-8.96-65.28 12.8-131.2 58.88-177.92 40.96-40.32 94.72-61.44 149.12-61.44 37.12 0 74.88 9.6 108.8 30.08 15.36 8.96 20.48 28.8 10.88 44.16-8.32 14.72-28.16 19.2-43.52 10.24z"  horiz-adv-x="1024" />

    
    <glyph glyph-name="fuyong" unicode="&#59211;" d="M408.32 234.24h195.2c17.92 0 32 14.08 32 32s-14.08 32-32 32H408.32c-17.92 0-32-14.08-32-32s14.08-32 32-32zM408.32 89.60000000000002h328.32c17.92 0 32 14.08 32 32s-14.08 32-32 32H408.32c-17.92 0-32-14.08-32-32s14.08-32 32-32zM913.28 709.12h-163.84V782.08c0 17.92-14.08 32-32 32H110.72c-17.92 0-32-14.08-32-32v-699.52c0-17.92 14.08-32 32-32H211.2v-64c0-17.92 14.08-32 32-32h669.44c17.92 0 32 14.08 32 32V677.12c0.64 17.92-14.08 32-31.36 32z m-770.56-595.2V750.08h542.08v-40.32H243.2c-17.92 0-32-14.08-32-32v-563.2H142.72z m738.56-96H275.2v627.2h605.44v-627.2z"  horiz-adv-x="1024" />

    
    <glyph glyph-name="jixian" unicode="&#59212;" d="M928.64 6.399999999999977H95.36c-36.48 0-65.92 28.16-65.92 62.72V564.48c0 34.56 29.44 62.72 65.92 62.72H236.8l26.24 89.6c9.6 27.52 34.56 44.8 63.36 44.8h370.56c28.8 0 53.76-17.28 62.72-43.52l24.32-90.24 144-0.64c36.48 0 65.92-28.16 65.92-62.72v-495.36c0.64-34.56-28.8-62.72-65.28-62.72zM95.36 563.2l-1.92-494.08 835.2 1.28 1.92 494.08-143.36-1.28c-28.8 0-53.76 17.28-62.72 43.52l-0.64 1.28-24.96 91.52-372.48-1.92-26.24-89.6c-8.96-27.52-34.56-44.8-63.36-44.8H95.36zM512 141.44000000000005c-110.72 0-200.96 90.24-200.96 200.96 0 110.72 90.24 200.96 200.96 200.96 110.72 0 200.96-90.24 200.96-200.96 0-110.72-90.24-200.96-200.96-200.96z m0 337.92c-75.52 0-136.96-61.44-136.96-136.96s61.44-136.96 136.96-136.96 136.96 61.44 136.96 136.96S587.52 479.36 512 479.36z"  horiz-adv-x="1024" />

    
    <glyph glyph-name="shouyingxiang" unicode="&#59213;" d="M852.48 808.3199999999999H171.52c-45.44 0-82.56-35.84-82.56-80v-647.04c0-44.16 37.12-80 82.56-80h241.28c17.92 0 32 14.08 32 32s-14.08 32-32 32H171.52c-10.24 0-18.56 7.04-18.56 16V728.3199999999999c0 8.96 8.32 16 18.56 16h680.32c10.24 0 18.56-7.04 18.56-16v-323.84c0-17.92 14.08-32 32-32s32 14.08 32 32V728.3199999999999c0.64 44.16-36.48 80-81.92 80zM563.2 572.1600000000001L467.2 406.4h64v-385.92c0-17.92 14.08-32 32-32s32 14.08 32 32V406.4h64L563.2 572.1600000000001zM810.24 543.36c0 17.92-14.08 32-32 32s-32-14.08-32-32v-385.92h-64l96-165.76 96 165.76h-64V543.36z"  horiz-adv-x="1024" />

    
    <glyph glyph-name="list-alt-b" unicode="&#59210;" d="M787.2 574.08c-12.8 0-19.2 6.4-19.2 12.8v224c0 12.8 6.4 19.2 12.8 19.2h224c12.8 0 19.2-6.4 19.2-19.2v-217.6c0-12.8-6.4-19.2-19.2-19.2h-217.6zM25.6 574.08c-12.8 0-25.6 12.8-25.6 32v198.4c0 12.8 12.8 25.6 32 25.6h646.4c12.8 0 25.6-12.8 25.6-25.6v-204.8c0-12.8-12.8-25.6-25.6-25.6H25.6zM787.2 254.08c-12.8 0-19.2 6.4-19.2 12.8v224c0 12.8 6.4 19.2 12.8 19.2h224c12.8 0 19.2-6.4 19.2-19.2v-217.6c0-12.8-6.4-19.2-19.2-19.2h-217.6zM25.6 254.08c-12.8 0-25.6 12.8-25.6 32v198.4c0 12.8 12.8 25.6 32 25.6h646.4c12.8 0 25.6-12.8 25.6-25.6v-204.8c0-12.8-12.8-25.6-25.6-25.6H25.6zM25.6-65.92c-12.8 0-25.6 12.8-25.6 32v198.4c0 12.8 12.8 25.6 32 25.6h646.4c12.8 0 25.6-12.8 25.6-25.6v-204.8c0-12.8-12.8-25.6-25.6-25.6H25.6zM787.2-65.92c-12.8 0-19.2 6.4-19.2 12.8v224c0 12.8 6.4 19.2 12.8 19.2h224c12.8 0 19.2-6.4 19.2-12.8v-224c0-12.8-6.4-19.2-19.2-19.2h-217.6z"  horiz-adv-x="1024" />

    
    <glyph glyph-name="dragFocus" unicode="&#59199;" d="M440.32 576H263.68C259.2 576 256 579.2 256 583.68V760.32c0 4.48 3.2 7.68 7.68 7.68h177.28c3.84 0 7.04-3.2 7.04-7.68v-177.28c0-3.84-3.2-7.04-7.68-7.04zM440.32 288H263.68c-4.48 0-7.68 3.2-7.68 7.68V472.32c0 4.48 3.2 7.68 7.68 7.68h177.28c3.84 0 7.04-3.2 7.04-7.68v-177.28c0-3.84-3.2-7.04-7.68-7.04zM440.32 0H263.68c-4.48 0-7.68 3.2-7.68 7.68v177.28c0 3.84 3.2 7.04 7.68 7.04h177.28c3.84 0 7.04-3.2 7.04-7.68v-177.28c0-3.84-3.2-7.04-7.68-7.04zM760.32 576H583.68C579.2 576 576 579.2 576 583.68V760.32c0 4.48 3.2 7.68 7.68 7.68h177.28c3.84 0 7.04-3.2 7.04-7.68v-177.28c0-3.84-3.2-7.04-7.68-7.04zM760.32 288H583.68c-4.48 0-7.68 3.2-7.68 7.68V472.32c0 4.48 3.2 7.68 7.68 7.68h177.28c3.84 0 7.04-3.2 7.04-7.68v-177.28c0-3.84-3.2-7.04-7.68-7.04zM760.32 0H583.68c-4.48 0-7.68 3.2-7.68 7.68v177.28c0 3.84 3.2 7.04 7.68 7.04h177.28c3.84 0 7.68-3.2 7.68-7.68v-177.28a8.32 8.32 0 0 0-8.32-7.04z"  horiz-adv-x="1024" />

    
    <glyph glyph-name="kuang" unicode="&#59196;" d="M921.6 896H102.4C44.8 896 0 851.2 0 793.6v-812.8c0-64 44.8-108.8 102.4-108.8h812.8c57.6 0 102.4 44.8 102.4 102.4V793.6C1024 851.2 979.2 896 921.6 896z m32-864c0-51.2-38.4-89.6-89.6-89.6h-704c-51.2 0-89.6 38.4-89.6 89.6v704c0 51.2 38.4 89.6 89.6 89.6h704c51.2 0 89.6-38.4 89.6-89.6v-704z"  horiz-adv-x="1024" />

    
    <glyph glyph-name="banxuanzhong" unicode="&#59197;" d="M921.6 896H102.4C44.8 896 0 851.2 0 793.6v-812.8c0-64 44.8-108.8 102.4-108.8h812.8c57.6 0 102.4 44.8 102.4 102.4V793.6C1024 851.2 979.2 896 921.6 896z m32-864c0-51.2-38.4-89.6-89.6-89.6h-704c-51.2 0-89.6 38.4-89.6 89.6v704c0 51.2 38.4 89.6 89.6 89.6h704c51.2 0 89.6-38.4 89.6-89.6v-704zM768 704H256c-32 0-64-32-64-64v-512c0-38.4 32-64 64-64h512c38.4 0 64 32 64 64V640c0 32-32 64-64 64z m19.2-537.6c0-32-25.6-57.6-57.6-57.6H294.4c-32 0-57.6 25.6-57.6 57.6V601.6c0 32 25.6 57.6 57.6 57.6h441.6c32 0 57.6-25.6 57.6-57.6v-435.2zM774.4 64H249.6c-32 0-57.6 25.6-57.6 57.6V646.4c0 32 25.6 57.6 57.6 57.6h531.2c25.6 0 51.2-25.6 51.2-57.6v-531.2c0-25.6-25.6-51.2-57.6-51.2z"  horiz-adv-x="1024" />

    
    <glyph glyph-name="xuanzhong" unicode="&#59198;" d="M921.6 896H102.4C44.8 896 0 851.2 0 793.6v-812.8c0-64 44.8-108.8 102.4-108.8h812.8c57.6 0 102.4 44.8 102.4 102.4V793.6C1024 851.2 979.2 896 921.6 896z m-70.4-364.8l-384-384c-6.4-12.8-25.6-19.2-38.4-19.2s-32 6.4-44.8 19.2L172.8 358.4c-25.6 25.6-25.6 70.4 0 89.6s64 25.6 89.6 0l166.4-166.4L768 620.8c25.6 25.6 64 25.6 89.6 0s19.2-64-6.4-89.6z"  horiz-adv-x="1024" />

    
    <glyph glyph-name="tianjia" unicode="&#59193;" d="M921.6 896H102.4C44.8 896 0 851.2 0 793.6v-812.8c0-64 44.8-108.8 102.4-108.8h812.8c57.6 0 102.4 44.8 102.4 102.4V793.6C1024 851.2 979.2 896 921.6 896z m-166.4-588.8H588.8v-166.4c0-38.4-32-76.8-76.8-76.8s-76.8 32-76.8 76.8V307.2H268.8C230.4 307.2 192 339.2 192 384s32 76.8 76.8 76.8h166.4V627.2C435.2 665.6 467.2 704 512 704s76.8-32 76.8-76.8v-166.4h166.4c38.4 0 76.8-32 76.8-76.8s-38.4-76.8-76.8-76.8z"  horiz-adv-x="1024" />

    
    <glyph glyph-name="xiugai" unicode="&#59191;" d="M921.6 896H102.4C44.8 896 0 851.2 0 793.6v-812.8c0-64 44.8-108.8 102.4-108.8h812.8c57.6 0 102.4 44.8 102.4 102.4V793.6C1024 851.2 979.2 896 921.6 896zM211.2 64c-12.8 0-19.2 6.4-19.2 19.2l6.4 128 134.4-134.4-121.6-12.8z m569.6 454.4l-435.2-435.2-134.4 134.4 6.4 6.4 435.2 435.2 134.4-134.4-6.4-6.4z m25.6 25.6l-134.4 134.4c12.8 19.2 38.4 25.6 64 25.6s51.2-12.8 70.4-25.6c19.2-19.2 25.6-44.8 25.6-70.4 0-25.6-6.4-51.2-25.6-64z"  horiz-adv-x="1024" />

    
    <glyph glyph-name="xiayou" unicode="&#59188;" d="M512-128c-281.6 0-512 230.4-512 512s230.4 512 512 512 512-230.4 512-512-230.4-512-512-512zM512 838.4C262.4 838.4 57.6 633.6 57.6 384s204.8-454.4 454.4-454.4 454.4 204.8 454.4 454.4S761.6 838.4 512 838.4zM294.4 537.6c25.6 0 44.8 12.8 51.2 32h70.4v-428.8h256c12.8-19.2 32-32 51.2-32 32 0 64 25.6 64 64 0 32-25.6 64-64 64-25.6 0-44.8-12.8-51.2-32h-192V352h192c12.8-19.2 32-32 57.6-32 32 0 64 25.6 64 64 0 32-25.6 64-64 64-25.6 0-44.8-12.8-51.2-32h-192V563.2h192c12.8-19.2 32-32 51.2-32 32 0 64 25.6 64 64 0 32-25.6 64-64 64-25.6 0-44.8-12.8-51.2-32H345.6c-6.4 19.2-25.6 32-51.2 32-32 0-64-25.6-64-64 0-32 32-57.6 64-57.6z"  horiz-adv-x="1024" />

    
    <glyph glyph-name="shangyou" unicode="&#59189;" d="M512-128c-281.6 0-512 230.4-512 512s230.4 512 512 512 512-230.4 512-512-230.4-512-512-512zM512 838.4C262.4 838.4 57.6 633.6 57.6 384s204.8-454.4 454.4-454.4 454.4 204.8 454.4 454.4S761.6 838.4 512 838.4zM729.6 230.39999999999998c-25.6 0-44.8-12.8-51.2-32H601.6V627.2h-256c-6.4 19.2-25.6 32-51.2 32-32 0-64-25.6-64-64 0-32 25.6-64 64-64 25.6 0 44.8 12.8 51.2 32h192v-153.6h-192C339.2 435.2 320 448 294.4 448c-32 0-64-25.6-64-64 0-32 25.6-64 64-64 25.6 0 44.8 12.8 51.2 32h192v-153.6h-192c-12.8 19.2-32 32-51.2 32-32 0-64-25.6-64-64 0-32 25.6-64 64-64 25.6 0 44.8 12.8 51.2 32h326.4c12.8-19.2 32-32 51.2-32 32 0 64 25.6 64 64 6.4 38.4-25.6 64-57.6 64z"  horiz-adv-x="1024" />

    
    <glyph glyph-name="CAR" unicode="&#58988;" d="M422.4 57.6c-96 0-185.6 38.4-249.6 102.4S70.4 313.6 70.4 409.6s38.4 185.6 102.4 249.6C281.6 768 454.4 793.6 588.8 716.8c12.8-6.4 19.2-25.6 12.8-44.8-6.4-12.8-25.6-19.2-38.4-6.4-115.2 57.6-256 38.4-345.6-51.2-57.6-57.6-83.2-128-83.2-204.8s32-147.2 83.2-204.8c57.6-57.6 128-83.2 204.8-83.2 76.8 0 147.2 32 204.8 83.2 64 64 89.6 147.2 83.2 236.8 0 19.2 12.8 32 25.6 38.4 19.2 0 32-12.8 38.4-25.6 12.8-108.8-25.6-211.2-102.4-288-70.4-70.4-153.6-108.8-249.6-108.8zM684.8 230.4c-6.4 0-6.4 0-12.8-6.4l-70.4-70.4c-6.4-6.4-6.4-19.2 0-25.6l140.8-140.8c6.4-6.4 19.2-12.8 32-12.8s25.6 6.4 32 12.8l19.2 19.2c19.2 19.2 19.2 51.2 0 70.4l-140.8 140.8c6.4 12.8 6.4 12.8 0 12.8zM576 300.8L416 377.6l-115.2-51.2c-12.8-12.8-32-6.4-38.4 12.8-12.8 12.8-6.4 32 12.8 38.4L416 448l96-44.8V576h147.2l121.6 121.6c12.8 12.8 32 12.8 44.8 0s12.8-32 0-44.8L684.8 512H576v-211.2zM723.2 736l140.8-140.8V736z"  horiz-adv-x="1024" />

    
    <glyph glyph-name="CM" unicode="&#58992;" d="M768 768m-64 0a64 64 0 1 1 128 0 64 64 0 1 1-128 0ZM768 576m-64 0a64 64 0 1 1 128 0 64 64 0 1 1-128 0ZM768 384m-64 0a64 64 0 1 1 128 0 64 64 0 1 1-128 0ZM576 780.8V832L512 768l64-64v44.8h172.8v-467.2c0-57.6-44.8-108.8-108.8-108.8H358.4V608c64 6.4 115.2 64 115.2 128 0 70.4-57.6 128-128 128s-128-57.6-128-128c0-64 51.2-121.6 115.2-128v-454.4c-64-6.4-115.2-64-115.2-128 0-70.4 57.6-128 128-128s128 57.6 128 128c0 51.2-25.6 89.6-70.4 115.2h243.2c76.8 0 140.8 64 140.8 140.8V780.8H576z m-300.8-44.8c0 38.4 25.6 64 64 64s64-25.6 64-64-25.6-64-64-64-64 25.6-64 64z m128-704c0-38.4-25.6-64-64-64s-64 25.6-64 64 25.6 64 64 64 64-25.6 64-64z"  horiz-adv-x="1024" />

    
    <glyph glyph-name="COCO" unicode="&#58993;" d="M876.8 576H640v44.8C640 665.6 601.6 704 556.8 704H147.2C102.4 704 64 665.6 64 620.8v-339.2c0-19.2 12.8-44.8 32-51.2 6.4 0 12.8-6.4 19.2-6.4 12.8 0 25.6 6.4 38.4 19.2L236.8 320H384v-44.8c0-44.8 38.4-83.2 83.2-83.2h320l76.8-76.8c12.8-12.8 25.6-19.2 38.4-19.2 6.4 0 12.8 0 19.2 6.4 19.2 6.4 32 25.6 32 51.2V492.8c6.4 44.8-32 83.2-76.8 83.2zM211.2 384L128 300.79999999999995v320c0 12.8 6.4 19.2 19.2 19.2h409.6c12.8 0 19.2-6.4 19.2-19.2V576H467.2C422.4 576 384 537.6 384 492.8V384H211.2zM896 172.79999999999995L812.8 256H467.2c-12.8 0-19.2 6.4-19.2 19.2V492.8c0 12.8 6.4 19.2 19.2 19.2h409.6c12.8 0 19.2-6.4 19.2-19.2v-320zM544 384m-32 0a32 32 0 1 1 64 0 32 32 0 1 1-64 0ZM672 384m-32 0a32 32 0 1 1 64 0 32 32 0 1 1-64 0ZM800 384m-32 0a32 32 0 1 1 64 0 32 32 0 1 1-64 0Z"  horiz-adv-x="1024" />

    
    <glyph glyph-name="ETS" unicode="&#58996;" d="M512 518.4c76.8 0 134.4-64 134.4-134.4s-64-134.4-134.4-134.4S377.6 307.2 377.6 384 435.2 518.4 512 518.4m0 32C422.4 550.4 345.6 473.6 345.6 384s76.8-166.4 166.4-166.4 166.4 76.8 166.4 166.4S601.6 550.4 512 550.4zM512 684.8c166.4 0 307.2-134.4 307.2-307.2s-134.4-307.2-307.2-307.2S211.2 217.6 211.2 384 345.6 684.8 512 684.8m0 32C326.4 716.8 179.2 569.6 179.2 384s153.6-339.2 339.2-339.2 339.2 153.6 339.2 339.2S697.6 716.8 512 716.8zM512 800c230.4 0 416-185.6 416-416s-185.6-416-416-416S96 153.6 96 384 281.6 800 512 800M512 832C262.4 832 64 633.6 64 384s198.4-448 448-448 448 198.4 448 448-198.4 448-448 448zM992 352H32C12.8 352 0 364.8 0 384s12.8 32 32 32h960c19.2 0 32-12.8 32-32s-12.8-32-32-32zM544 864v-960c0-19.2-12.8-32-32-32s-32 12.8-32 32V864c0 19.2 12.8 32 32 32s32-12.8 32-32zM384 192m-32 0a32 32 0 1 1 64 0 32 32 0 1 1-64 0ZM512 384l320 256 64-128z"  horiz-adv-x="1024" />

    
    <glyph glyph-name="DAR" unicode="&#58999;" d="M512 896c-38.4 0-64-25.6-64-64v-960h128V832c0 32-32 64-64 64zM627.2-64H396.8c-6.4 0-12.8-6.4-12.8-12.8v-38.4c0-6.4 6.4-12.8 12.8-12.8h230.4c6.4 0 12.8 6.4 12.8 12.8v38.4c0 6.4-6.4 12.8-12.8 12.8zM793.6 640l25.6-32-25.6-32H512V640h281.6m19.2 64H473.6c-12.8 0-25.6-12.8-25.6-19.2v-147.2c0-12.8 12.8-25.6 25.6-25.6h339.2c6.4 0 19.2 6.4 19.2 12.8l57.6 76.8c6.4 6.4 6.4 19.2 0 25.6l-57.6 64c-6.4 6.4-12.8 12.8-19.2 12.8zM512 512v-64H230.4l-25.6 32 25.6 32H512m38.4 64H211.2c-6.4 0-12.8-6.4-19.2-12.8l-57.6-70.4c-6.4-6.4-6.4-19.2 0-25.6L192 396.8c6.4-6.4 12.8-12.8 19.2-12.8h339.2c12.8 0 25.6 12.8 25.6 19.2V556.8c0 6.4-12.8 19.2-25.6 19.2z"  horiz-adv-x="1024" />

    
    <glyph glyph-name="CAM" unicode="&#59001;" d="M512 384v-320H192V384h320m32 64h-384c-19.2 0-32-12.8-32-32v-384c0-19.2 12.8-32 32-32h384c19.2 0 32 12.8 32 32v384c0 19.2-12.8 32-32 32zM128 768h64v-128H128zM128 576h64v-192H128zM384 704V768h128v-64zM192 704V768h128v-64zM576 704V768h128v-64zM768 704V768h128v-64zM832 704h64v-64h-64zM832 576h64v-128h-64zM832 384h64v-128h-64zM832 192h64v-128h-64zM768 0v64h128v-64zM448 0v64h256v-64zM582.72 503.04l85.952 86.016 45.248-45.248-85.952-86.016zM736 512L640 608h96z"  horiz-adv-x="1024" />

    
    <glyph glyph-name="OT" unicode="&#59002;" d="M902.4 288H512c-19.2 0-32 12.8-32 32s12.8 32 32 32h390.4c12.8 0 25.6 6.4 25.6 19.2V716.8c0 6.4-12.8 19.2-25.6 19.2H121.6c-12.8 0-25.6-6.4-25.6-19.2v-352c0-6.4 12.8-19.2 25.6-19.2H128c19.2 0 32-12.8 32-32s-12.8-25.6-32-25.6h-6.4C70.4 288 32 326.4 32 371.2V716.8c0 44.8 38.4 83.2 89.6 83.2h787.2c51.2 0 89.6-38.4 89.6-83.2v-352c-6.4-38.4-44.8-76.8-96-76.8zM64-64v134.4c0 32 25.6 57.6 51.2 57.6h153.6c25.6 0 51.2-25.6 51.2-57.6V-64M384-64v134.4c0 32 25.6 57.6 51.2 57.6h153.6c32 0 51.2-25.6 51.2-57.6V-64M704-64v134.4c0 32 25.6 57.6 51.2 57.6h153.6c32 0 51.2-25.6 51.2-57.6V-64M307.2 512c-38.4 0-64 25.6-64 64s25.6 64 64 64 64-25.6 64-64-25.6-64-64-64zM345.6 256H275.2c-32 0-57.6 25.6-57.6 57.6V454.4c-6.4 32 25.6 57.6 57.6 57.6h70.4c32 0 57.6-25.6 57.6-57.6V320c0-38.4-25.6-64-57.6-64zM326.4 64h-38.4c-25.6 0-44.8 19.2-44.8 44.8V275.2c0 25.6 25.6 44.8 44.8 44.8h38.4c25.6 0 44.8-19.2 44.8-44.8v-166.4c0-25.6-19.2-44.8-44.8-44.8zM403.2 384l-57.6 57.6c-12.8 6.4-12.8 32 0 44.8 12.8 12.8 32 12.8 44.8 0l57.6-57.6c12.8-12.8 12.8-32 0-44.8-12.8-12.8-32-12.8-44.8 0zM416 396.8c-6.4 0-6.4 0-12.8 6.4s-6.4 19.2 0 25.6l192 192c6.4 6.4 19.2 6.4 25.6 0s6.4-19.2 0-25.6l-192-192c-6.4 0-6.4-6.4-12.8-6.4z"  horiz-adv-x="1024" />

    
    <glyph glyph-name="PAD" unicode="&#59006;" d="M832 620.8v-384H192v384h640m19.2 64H172.8c-25.6 0-44.8-19.2-44.8-38.4v-422.4c0-25.6 19.2-44.8 44.8-44.8h678.4c25.6 0 44.8 19.2 44.8 44.8V646.4c0 19.2-19.2 38.4-44.8 38.4zM1004.8 128H19.2c-6.4 0-12.8 6.4-6.4 12.8L128 256h774.4l108.8-108.8c6.4-12.8 0-19.2-6.4-19.2zM569.6 460.8l-32 19.2 12.8 38.4v6.4L512 563.2h-6.4l-38.4-6.4-19.2 32s0 6.4-6.4 6.4h-51.2s-6.4 0-6.4-6.4l-19.2-32-38.4 6.4H320l-38.4-38.4v-6.4l12.8-38.4-32-19.2s-6.4 0-6.4-6.4v-57.6s0-6.4 6.4-6.4l32-6.4-12.8-38.4v-6.4l38.4-38.4h6.4l38.4 12.8 19.2-38.4s0-6.4 6.4-6.4H448s6.4 0 6.4 6.4l19.2 32 38.4-12.8h6.4l38.4 38.4v6.4L537.6 384l32 19.2s6.4 0 6.4 6.4l-6.4 51.2c6.4 0 6.4 0 0 0zM486.4 364.8c-19.2-19.2-44.8-32-70.4-32s-51.2 12.8-70.4 32c-12.8 19.2-25.6 38.4-25.6 64 0 51.2 44.8 96 96 96S512 486.4 512 428.8c0-25.6-12.8-44.8-25.6-64zM768 371.2l-19.2 12.8 6.4 19.2v6.4l-25.6 25.6h-6.4l-19.2-6.4-12.8 19.2h-32l-19.2-19.2h-19.2-6.4l-19.2-19.2V384l-19.2-12.8v-32l19.2-19.2v-25.6l25.6-25.6h6.4l12.8 6.4 12.8-19.2h32l19.2 19.2 19.2-6.4h6.4l25.6 25.6v6.4l-6.4 19.2 19.2 12.8v38.4z m-57.6-57.6c-12.8-12.8-25.6-19.2-38.4-19.2s-32 6.4-38.4 19.2c-12.8 6.4-19.2 25.6-19.2 38.4 0 32 25.6 57.6 57.6 57.6s57.6-25.6 57.6-57.6c0-12.8-6.4-32-19.2-38.4z"  horiz-adv-x="1024" />

    
    <glyph glyph-name="MC" unicode="&#59013;" d="M825.6 832c6.4 0 6.4 0 0 0l6.4-889.6s0-6.4-6.4-6.4H198.4c-6.4 0-6.4 0-6.4 6.4V825.6C192 832 192 832 198.4 832h627.2m0 64H198.4C160 896 128 864 128 825.6V-64c0-32 32-64 70.4-64H832c38.4 0 70.4 32 70.4 70.4V825.6C896 864 864 896 825.6 896zM563.2 704H460.8c-6.4 0-12.8-6.4-12.8-12.8v-96c0-12.8 6.4-19.2 12.8-19.2h96c12.8 0 19.2 6.4 19.2 12.8V691.2c0 6.4-6.4 12.8-12.8 12.8zM646.4 627.2l-25.6-25.6v-12.8l32-32h12.8l19.2 19.2v12.8l-38.4 38.4c6.4 0 6.4 0 0 0zM627.2 192H268.8c-6.4 0-12.8-6.4-12.8-12.8v-38.4c0-6.4 6.4-12.8 12.8-12.8h358.4c6.4 0 12.8 6.4 12.8 12.8v38.4c0 6.4-6.4 12.8-12.8 12.8zM755.2 192h-38.4c-6.4 0-12.8-6.4-12.8-12.8v-38.4c0-6.4 6.4-12.8 12.8-12.8h38.4c6.4 0 12.8 6.4 12.8 12.8v38.4c0 6.4-6.4 12.8-12.8 12.8zM627.2 64H268.8c-6.4 0-12.8-6.4-12.8-12.8v-38.4c0-6.4 6.4-12.8 12.8-12.8h358.4c6.4 0 12.8 6.4 12.8 12.8v38.4c0 6.4-6.4 12.8-12.8 12.8zM755.2 64h-38.4c-6.4 0-12.8-6.4-12.8-12.8v-38.4c0-6.4 6.4-12.8 12.8-12.8h38.4c6.4 0 12.8 6.4 12.8 12.8v38.4c0 6.4-6.4 12.8-12.8 12.8zM512 576c70.4 0 128-57.6 128-128s-57.6-128-128-128-128 57.6-128 128 57.6 128 128 128m0 64C403.2 640 320 556.8 320 448s83.2-192 192-192 192 83.2 192 192-83.2 192-192 192zM499.2 512v-128l57.6 57.6c6.4 6.4 6.4 12.8 0 19.2L499.2 512z"  horiz-adv-x="1024" />

    
    <glyph glyph-name="MPM" unicode="&#59018;" d="M928 640h-512c-19.2 0-32-12.8-32-32v-697.6c0-25.6 12.8-38.4 32-38.4h505.6c19.2 0 32 12.8 32 32v704c6.4 19.2-6.4 32-25.6 32zM640 12.799999999999955c0-6.4-6.4-12.8-12.8-12.8H524.8c-6.4 0-12.8 6.4-12.8 12.8v102.4c0 6.4 6.4 12.8 12.8 12.8h102.4c6.4 0 12.8-6.4 12.8-12.8v-102.4z m0 192c0-6.4-6.4-12.8-12.8-12.8H524.8c-6.4 0-12.8 6.4-12.8 12.8V307.20000000000005c0 6.4 6.4 12.8 12.8 12.8h102.4c6.4 0 12.8-6.4 12.8-12.8v-102.4z m192-192c0-6.4-6.4-12.8-12.8-12.8h-102.4c-6.4 0-12.8 6.4-12.8 12.8v102.4c0 6.4 6.4 12.8 12.8 12.8h102.4c6.4 0 12.8-6.4 12.8-12.8v-102.4z m0 192c0-6.4-6.4-12.8-12.8-12.8h-102.4c-6.4 0-12.8 6.4-12.8 12.8V307.20000000000005c0 6.4 6.4 12.8 12.8 12.8h102.4c6.4 0 12.8-6.4 12.8-12.8v-102.4z m64 256c0-6.4-6.4-12.8-12.8-12.8H460.8c-6.4 0-12.8 6.4-12.8 12.8V563.2c0 6.4 6.4 12.8 12.8 12.8h416c12.8 0 19.2-6.4 19.2-12.8v-102.4zM550.4 704H217.6c-12.8 0-25.6 12.8-25.6 25.6v12.8c0 12.8 12.8 25.6 25.6 25.6h332.8c12.8 0 25.6-12.8 25.6-25.6v-12.8c0-12.8-12.8-25.6-25.6-25.6zM428.8 512H211.2c-12.8 0-19.2 6.4-19.2 19.2v25.6c0 12.8 6.4 19.2 19.2 19.2h211.2c19.2 0 25.6-6.4 25.6-19.2v-19.2c0-19.2-6.4-25.6-19.2-25.6zM428.8 320H211.2c-12.8 0-19.2 6.4-19.2 19.2v25.6c0 12.8 6.4 19.2 19.2 19.2h211.2c19.2 0 25.6-6.4 25.6-19.2v-19.2c0-19.2-6.4-25.6-19.2-25.6zM384 64H134.4c-6.4 0-6.4 0-6.4 6.4V825.6C128 832 128 832 134.4 832h563.2c6.4 0 6.4 0 6.4-6.4V640h64V825.6c0 38.4-32 70.4-70.4 70.4H134.4C96 896 64 864 64 825.6v-755.2c0-38.4 32-70.4 70.4-70.4H384v64z"  horiz-adv-x="1024" />

    
    <glyph glyph-name="PI" unicode="&#59021;" d="M928 281.6V358.4c0 6.4 0 19.2-6.4 25.6 6.4 6.4 6.4 19.2 6.4 25.6V544H896c-19.2 0-32 12.8-32 32s12.8 32 32 32h32V742.4c0 32-25.6 57.6-57.6 57.6h-76.8c-12.8 38.4-51.2 64-89.6 64s-76.8-25.6-89.6-64H537.6c-6.4 0-19.2 0-25.6-6.4-6.4 6.4-19.2 6.4-25.6 6.4H352V768c0-19.2-12.8-32-32-32s-32 12.8-32 32v32H153.6c-32 0-57.6-25.6-57.6-57.6v-76.8c-38.4-12.8-64-51.2-64-89.6s25.6-76.8 64-89.6v-76.8c0-6.4 0-19.2 6.4-25.6-6.4-6.4-6.4-19.2-6.4-25.6v-76.8c-38.4-12.8-64-51.2-64-89.6s25.6-76.8 64-89.6v-76.8c0-32 25.6-57.6 57.6-57.6h76.8c12.8-38.4 51.2-64 89.6-64s76.8 25.6 89.6 64h76.8c6.4 0 19.2 0 25.6 6.4 6.4-6.4 19.2-6.4 25.6-6.4h134.4V0c0 19.2 12.8 32 32 32s32-12.8 32-32v-32h134.4c32 0 57.6 25.6 57.6 57.6v76.8c38.4 12.8 64 51.2 64 89.6s-25.6 76.8-64 89.6z m-256 454.4V768c0 19.2 12.8 32 32 32s32-12.8 32-32v-32l128 6.4v-76.8c-38.4-12.8-64-51.2-64-89.6 0-44.8 25.6-76.8 64-89.6v-64h-76.8c-12.8 38.4-51.2 64-89.6 64s-76.8-25.6-89.6-64h-64V544H512c-12.8 0-32 12.8-32 32s12.8 32 32 32h32v128h128zM96 576c0 19.2 12.8 32 32 32h32l-6.4 128h76.8c12.8-38.4 51.2-64 89.6-64 44.8 0 76.8 25.6 89.6 64h64v-76.8c-38.4-12.8-64-51.2-64-89.6s25.6-76.8 64-89.6v-64h-64c-12.8 38.4-51.2 64-89.6 64s-76.8-25.6-89.6-64H160v128H128c-19.2 0-32 12.8-32 32z m256-544v-32c0-19.2-12.8-32-32-32s-32 12.8-32 32v32H256l-96-6.4v134.4H128c-19.2 0-32 12.8-32 32s12.8 32 32 32h32l-6.4 128h134.4V384c0 19.2 12.8 32 32 32s32-19.2 32-32v-32h121.6v-64c-38.4-12.8-64-51.2-64-89.6s25.6-76.8 64-89.6v-70.4H352z m544 128h-32l6.4-128h-76.8c-12.8 38.4-51.2 64-89.6 64-44.8 0-76.8-25.6-89.6-64h-64v134.4H512c-19.2 0-32 12.8-32 32s12.8 32 32 32h32V352h121.6V384c0 19.2 12.8 32 32 32s32-12.8 32-32v-32h128v-121.6h38.4c19.2 0 32-12.8 32-32s-12.8-38.4-32-38.4z"  horiz-adv-x="1024" />

    
    <glyph glyph-name="PCM" unicode="&#59049;" d="M352 243.2H147.2V531.2h204.8v-32H179.2v-224h172.8zM25.6 428.8h211.2v-83.2H25.6zM211.2 403.2v-32H51.2v32h160m25.6 51.2H19.2c-12.8 0-19.2-6.4-19.2-19.2v-89.6c0-12.8 6.4-19.2 19.2-19.2h217.6c12.8 0 19.2 6.4 19.2 19.2V435.2c0 12.8-6.4 19.2-19.2 19.2zM896 243.2h-192v32h160V499.2H704v32h192zM812.8 428.8h185.6v-83.2h-185.6zM972.8 403.2v-32h-134.4v32h134.4m32 51.2h-198.4c-12.8 0-19.2-6.4-19.2-19.2v-89.6c0-12.8 6.4-19.2 19.2-19.2h198.4c12.8 0 19.2 6.4 19.2 19.2V435.2c0 12.8-6.4 19.2-19.2 19.2zM512 838.4c25.6 0 51.2-19.2 51.2-51.2s-25.6-44.8-51.2-44.8-51.2 19.2-51.2 51.2 25.6 44.8 51.2 44.8m0 44.8c-51.2 0-96-44.8-96-96S460.8 691.2 512 691.2s96 44.8 96 96S563.2 883.2 512 883.2zM659.2 582.4v-96H371.2V582.4h288m19.2 44.8H352c-19.2 0-32-12.8-32-25.6v-134.4c0-19.2 12.8-32 32-32h326.4c12.8 0 25.6 12.8 25.6 32V601.6c0 12.8-12.8 25.6-25.6 25.6zM659.2 326.4v-96H371.2V326.4h288m19.2 44.8H352c-19.2 0-32-12.8-32-25.6v-134.4c0-12.8 12.8-25.6 25.6-25.6h326.4c12.8 0 25.6 12.8 25.6 25.6V345.6c6.4 12.8-6.4 25.6-19.2 25.6zM499.2 723.2h32v-128h-32zM512 38.4c25.6 0 51.2-19.2 51.2-51.2s-25.6-44.8-51.2-44.8-51.2 19.2-51.2 51.2 25.6 44.8 51.2 44.8m0 44.8c-51.2 0-96-44.8-96-96s44.8-96 96-96 96 44.8 96 96-44.8 96-96 96zM499.2 179.2h32v-128h-32zM499.2 467.2h32v-128h-32z"  horiz-adv-x="1024" />

    
    <glyph glyph-name="PLAN" unicode="&#59054;" d="M704 704v-64H320V704h384m32 64h-448c-19.2 0-32-12.8-32-32v-121.6c0-25.6 12.8-38.4 32-38.4h441.6c25.6 0 38.4 12.8 38.4 32v128c0 19.2-12.8 32-32 32zM704 448v-64H320V448h384m32 64h-448c-19.2 0-32-12.8-32-32v-121.6c0-25.6 12.8-38.4 32-38.4h441.6c25.6 0 38.4 12.8 38.4 32v128c0 19.2-12.8 32-32 32zM704 192v-64H320v64h384m32 64h-448c-19.2 0-32-12.8-32-32v-121.6c0-25.6 12.8-38.4 32-38.4h441.6c19.2 0 32 12.8 32 32v121.6c6.4 25.6-6.4 38.4-25.6 38.4zM64 128h102.4v-25.6l57.6 57.6-57.6 57.6v-25.6H128V352h128v64H64zM960 672h-192v-64h128V448h-38.4v25.6l-57.6-57.6 57.6-57.6V384H960z"  horiz-adv-x="1024" />

    
    <glyph glyph-name="PQA" unicode="&#59055;" d="M889.6-96H198.4c-57.6 0-102.4 44.8-102.4 96v224c0 19.2 12.8 32 32 32s32-12.8 32-32V0c0-19.2 19.2-32 38.4-32h691.2c19.2 0 38.4 12.8 38.4 32V499.2c0 19.2-19.2 32-38.4 32h-153.6c-19.2 0-32 12.8-32 32s12.8 32 32 32h153.6c57.6 0 102.4-44.8 102.4-96V0c0-51.2-44.8-96-102.4-96zM556.8 614.4H409.6C467.2 819.2 371.2 832 371.2 832c-38.4 0-32-32-32-38.4 0-102.4-108.8-179.2-108.8-179.2v-281.6c0-25.6 38.4-38.4 51.2-38.4h217.6c19.2 0 38.4 51.2 38.4 51.2 51.2 179.2 51.2 236.8 51.2 236.8 6.4 38.4-32 32-32 32z m0 0M172.8 614.4H83.2c-19.2 0-19.2-12.8-19.2-12.8l19.2-288c0-19.2 19.2-19.2 19.2-19.2h76.8c12.8 0 12.8 12.8 12.8 12.8V595.2c0 19.2-19.2 19.2-19.2 19.2z m0 0M480-19.2c-12.8 0-25.6 6.4-32 12.8l-160 166.4c-19.2 19.2-19.2 51.2 0 70.4 19.2 19.2 51.2 19.2 70.4 0l128-128 307.2 307.2c19.2 19.2 51.2 19.2 70.4 0s19.2-51.2 0-70.4l-345.6-345.6c-12.8-12.8-25.6-12.8-38.4-12.8z"  horiz-adv-x="1024" />

    
    <glyph glyph-name="PR" unicode="&#59058;" d="M768 204.8L633.6 339.2c-12.8 12.8-12.8 32 0 44.8l44.8 44.8c12.8 12.8 32 12.8 44.8 0l134.4-134.4c12.8-12.8 12.8-32 0-44.8l-44.8-44.8c-12.8-12.8-32-12.8-44.8 0zM960 12.8l-288 288c-6.4 6.4-6.4 19.2 0 25.6l19.2 19.2c6.4 6.4 19.2 6.4 25.6 0l288-288c6.4-6.4 6.4-19.2 0-25.6l-19.2-19.2c-6.4-6.4-19.2-6.4-25.6 0zM633.6 70.4l-134.4 134.4c-12.8 12.8-12.8 32 0 44.8l44.8 44.8c12.8 12.8 32 12.8 44.8 0l134.4-134.4c12.8-12.8 12.8-32 0-44.8l-44.8-44.8c-12.8-12.8-32-12.8-44.8 0zM699.776 366.912l90.56-90.496-90.56-90.56L609.28 276.48zM710.4-96H185.6c-51.2 0-89.6 44.8-89.6 96V768c0 51.2 38.4 96 89.6 96h531.2c51.2 0 89.6-44.8 89.6-96v-256c0-19.2-12.8-32-32-32s-38.4 12.8-38.4 32V768c0 19.2-12.8 32-25.6 32H185.6c-12.8 0-25.6-12.8-25.6-32v-768c0-19.2 12.8-32 25.6-32h524.8c12.8 0 25.6 12.8 25.6 32v64c0 19.2 12.8 32 32 32s32-12.8 32-32v-64c0-51.2-38.4-96-89.6-96zM652.8 704H243.2c-12.8 0-19.2-6.4-19.2-19.2v-32c0-6.4 6.4-12.8 19.2-12.8h416c6.4 0 19.2 6.4 19.2 19.2v25.6c-6.4 12.8-12.8 19.2-25.6 19.2zM531.2 576H236.8c-6.4 0-12.8-6.4-12.8-12.8v-38.4c0-6.4 6.4-12.8 12.8-12.8h294.4c6.4 0 12.8 6.4 12.8 12.8v38.4c0 6.4-6.4 12.8-12.8 12.8zM595.2 448H236.8c-6.4 0-12.8-6.4-12.8-12.8v-32c0-12.8 6.4-19.2 12.8-19.2h352c6.4 0 12.8 6.4 12.8 12.8v38.4c6.4 6.4 0 12.8-6.4 12.8z"  horiz-adv-x="1024" />

    
    <glyph glyph-name="RDM" unicode="&#59059;" d="M832 640v-128H448V640h384m19.2 64H428.8c-25.6 0-44.8-19.2-44.8-44.8v-160c0-32 19.2-51.2 44.8-51.2h416c32 0 51.2 19.2 51.2 44.8V659.2c0 25.6-19.2 44.8-44.8 44.8zM288 320c19.2 0 32-12.8 32-32s-12.8-32-32-32-32 12.8-32 32 12.8 32 32 32m0 64C236.8 384 192 339.20000000000005 192 288S236.8 192 288 192 384 236.79999999999995 384 288 339.2 384 288 384zM288 96c64 0 121.6-38.4 147.2-96H140.8c25.6 57.6 83.2 96 147.2 96m0 64c-108.8 0-198.4-76.8-217.6-179.2-6.4-25.6 12.8-44.8 32-44.8h364.8c25.6 0 38.4 19.2 38.4 44.8-19.2 102.4-108.8 179.2-217.6 179.2zM736 320c19.2 0 32-12.8 32-32s-12.8-32-32-32-32 12.8-32 32 12.8 32 32 32m0 64c-51.2 0-96-44.8-96-96s44.8-96 96-96 96 44.8 96 96S787.2 384 736 384zM736 96c64 0 121.6-38.4 147.2-96H588.8c25.6 57.6 83.2 96 147.2 96m0 64c-108.8 0-198.4-76.8-217.6-179.2-6.4-25.6 12.8-44.8 32-44.8h364.8c25.6 0 38.4 19.2 38.4 44.8-19.2 102.4-108.8 179.2-217.6 179.2zM384 576H192V768h384v-64h64V780.8c0 25.6-25.6 51.2-51.2 51.2H179.2c-25.6 0-51.2-25.6-51.2-51.2v-211.2c0-32 25.6-57.6 51.2-57.6H384V576z"  horiz-adv-x="1024" />

    
    <glyph glyph-name="SAM" unicode="&#59061;" d="M454.4 38.4c-12.8 19.2-25.6 32-38.4 51.2-57.6-25.6-76.8-12.8-83.2 51.2-44.8-12.8-76.8-12.8-83.2 64-12.8 0-19.2-6.4-32-6.4-12.8 6.4-38.4 12.8-44.8 19.2-6.4 12.8-6.4 38.4 0 51.2 44.8 44.8 32 76.8-6.4 115.2-6.4 6.4 0 25.6-6.4 38.4 6.4 0 6.4 0 12.8 6.4 19.2-25.6 32-44.8 51.2-64 6.4-6.4 19.2-12.8 32-19.2 32 0 44.8-19.2 44.8-44.8 0-19.2 12.8-25.6 32-32 12.8-6.4 32-19.2 38.4-32 6.4-19.2 19.2-25.6 38.4-32 12.8 0 25.6-19.2 38.4-25.6 12.8-12.8 19.2-25.6 32-32 12.8-12.8 25.6-19.2 38.4-32 12.8-6.4 19.2-12.8 32-12.8 6.4 0 19.2 6.4 25.6 12.8 0 6.4-6.4 19.2-12.8 25.6-19.2 19.2-44.8 32-64 51.2-6.4 6.4-6.4 12.8-6.4 25.6h25.6c38.4-25.6 76.8-51.2 115.2-83.2 19.2-12.8 38.4-19.2 51.2 0 12.8 19.2 6.4 38.4-12.8 51.2-38.4 25.6-83.2 57.6-121.6 89.6-6.4 0-6.4 12.8-12.8 25.6 12.8 0 19.2 0 32-6.4l134.4-96c6.4-6.4 12.8-6.4 12.8-12.8 19.2-12.8 32-12.8 44.8 6.4 12.8 19.2 6.4 38.4-12.8 51.2-44.8 32-96 70.4-153.6 108.8l-12.8 12.8C576 371.2 576 377.6 576 384c6.4 0 12.8 6.4 19.2 6.4 6.4 0 19.2-6.4 25.6-12.8 51.2-38.4 108.8-76.8 160-115.2 19.2-12.8 38.4-19.2 57.6 0 19.2 19.2 12.8 38.4-12.8 64L556.8 556.8c-32 32-83.2 12.8-96-32-12.8-44.8-38.4-70.4-76.8-83.2-19.2 0-38.4 0-51.2 6.4-6.4 6.4-19.2 19.2-12.8 25.6 0 38.4 12.8 70.4 19.2 102.4l19.2 57.6H268.8c6.4 32 19.2 44.8 44.8 38.4h64c32 6.4 64 6.4 96 19.2 51.2 19.2 102.4 19.2 153.6 6.4 32-6.4 70.4-12.8 102.4-25.6 6.4 0 19.2-12.8 25.6-19.2 38.4-83.2 83.2-166.4 121.6-249.6 6.4-6.4 6.4-19.2 6.4-25.6-19.2-25.6-12.8-51.2 0-76.8 12.8-32-6.4-70.4-44.8-83.2-19.2-6.4-25.6-12.8-32-32-12.8-38.4-38.4-44.8-76.8-51.2-19.2-57.6-44.8-64-102.4-51.2-6.4 0-19.2-6.4-25.6-6.4-19.2-6.4-38.4-25.6-51.2-19.2-38.4 12.8-51.2-6.4-70.4-32-12.8 12.8-19.2 12.8-25.6 12.8M172.8 774.4c19.2-12.8 38.4-19.2 57.6-32 19.2-6.4 25.6-19.2 19.2-38.4-44.8-96-96-192-140.8-294.4-6.4-12.8-25.6-19.2-38.4-12.8-25.6 12.8-44.8 25.6-70.4 38.4v19.2c25.6 57.6 57.6 108.8 83.2 160s51.2 102.4 76.8 160h12.8m684.8 0c12.8-19.2 19.2-32 32-51.2 44.8-83.2 83.2-172.8 128-256 12.8-25.6 6.4-38.4-19.2-51.2-64-32-64-32-96 32-38.4 83.2-76.8 160-121.6 243.2-12.8 25.6-12.8 44.8 12.8 57.6 19.2 6.4 38.4 19.2 51.2 25.6h12.8m0 0"  horiz-adv-x="1024" />

    
    <glyph glyph-name="SWM" unicode="&#59098;" d="M416 768C467.2 768 512 723.2 512 672S467.2 576 416 576 320 620.8 320 672 364.8 768 416 768m0 64C326.4 832 256 761.6 256 672S326.4 512 416 512 576 582.4 576 672 505.6 832 416 832zM64 64c-19.2 0-32 12.8-32 32 0 211.2 172.8 384 384 384 76.8 0 153.6-25.6 224-70.4 12.8-12.8 19.2-32 6.4-44.8-12.8-12.8-32-19.2-44.8-6.4-57.6 38.4-121.6 57.6-185.6 57.6-179.2 0-320-140.8-320-320 0-19.2-12.8-32-32-32zM812.8 192H531.2c-12.8 0-19.2 6.4-19.2 19.2V300.8c0 12.8 6.4 19.2 19.2 19.2h281.6c12.8 0 19.2-6.4 19.2-19.2v-89.6c0-12.8-6.4-19.2-19.2-19.2zM499.2 0H332.8c-6.4 0-12.8 6.4-12.8 12.8v44.8s6.4 6.4 12.8 6.4h172.8s6.4-6.4 6.4-12.8v-44.8s-6.4-6.4-12.8-6.4zM755.2 0H588.8c-6.4 0-12.8 6.4-12.8 12.8v44.8s6.4 6.4 12.8 6.4h172.8c6.4 0 12.8-6.4 12.8-12.8v-44.8c-6.4 0-12.8-6.4-19.2-6.4zM1011.2 0h-172.8c-6.4 0-12.8 6.4-12.8 12.8v44.8c0 6.4 6.4 12.8 12.8 12.8h172.8c6.4 0 12.8-6.4 12.8-12.8v-44.8c0-6.4-6.4-12.8-12.8-12.8zM672 12.8c-6.4 0-19.2 6.4-19.2 19.2v192c0 6.4 6.4 19.2 19.2 19.2s19.2-6.4 19.2-19.2v-192c0-6.4-12.8-19.2-19.2-19.2zM928 44.8c-6.4 0-19.2 6.4-19.2 19.2v83.2h-512V64c0-6.4-6.4-19.2-19.2-19.2s-6.4 12.8-6.4 19.2v115.2h576V64c0-6.4-12.8-19.2-19.2-19.2z"  horiz-adv-x="1024" />

    
    <glyph glyph-name="VV" unicode="&#59178;" d="M192 12.8L128-64l-64 76.8V672h128zM64 697.6c0 38.4 25.6 76.8 64 76.8s64-32 64-76.8M896 768v-768H320V768h576m0 64H320c-38.4 0-64-25.6-64-64v-768c0-32 25.6-64 64-64h576c32 0 64 25.6 64 64V768c0 38.4-25.6 64-64 64zM812.8 704H403.2c-12.8 0-19.2-6.4-19.2-19.2v-32c0-6.4 6.4-12.8 19.2-12.8h416c6.4 0 12.8 6.4 12.8 19.2v25.6c0 12.8-6.4 19.2-19.2 19.2zM691.2 576H396.8c-6.4 0-12.8-6.4-12.8-12.8v-38.4c0-6.4 6.4-12.8 12.8-12.8h294.4c6.4 0 12.8 6.4 12.8 12.8v38.4c0 6.4-6.4 12.8-12.8 12.8zM755.2 448H396.8c-6.4 0-12.8-6.4-12.8-12.8v-32c0-12.8 6.4-19.2 12.8-19.2h352c12.8 0 19.2 6.4 19.2 12.8v38.4c0 6.4-6.4 12.8-12.8 12.8z"  horiz-adv-x="1024" />

    
    <glyph glyph-name="TS" unicode="&#59182;" d="M192 38.4l-64-70.4-64 70.4V704h128zM64 729.6c0 38.4 25.6 70.4 64 70.4S192 768 192 729.6M832 768v-768H320V768h512m6.4 64H313.6c-32 0-57.6-25.6-57.6-57.6v-780.8c0-32 25.6-57.6 57.6-57.6h524.8c32 0 57.6 25.6 57.6 57.6V774.4c0 32-25.6 57.6-57.6 57.6zM819.2 665.6l-57.6-57.6L851.2 512l-44.8-38.4-89.6 89.6-83.2-83.2 89.6-89.6-44.8-38.4-83.2 89.6-89.6-83.2 89.6-89.6-44.8-38.4-83.2 83.2L384 230.4l89.6-89.6-44.8-38.4L339.2 192l-57.6-57.6c-12.8-12.8-12.8-38.4 0-57.6L358.4 0c12.8-12.8 38.4-19.2 57.6 0L960 524.8c12.8 12.8 12.8 38.4 0 57.6l-76.8 76.8c-19.2 19.2-44.8 19.2-64 6.4z"  horiz-adv-x="1024" />

    
    <glyph glyph-name="SD" unicode="&#59185;" d="M819.2 460.8h-70.4V544c0 57.6-44.8 96-96 96h-128c-25.6 115.2-121.6 192-230.4 192-128 0-224-96-236.8-217.6-12.8-19.2-25.6-38.4-25.6-64v-332.8c0-57.6 44.8-96 96-96h76.8c-19.2-19.2-32-44.8-32-76.8 0-57.6 44.8-102.4 102.4-102.4S384-19.2 384 38.4c0 32-12.8 57.6-32 76.8H768c-19.2-19.2-32-44.8-32-76.8 0-57.6 44.8-102.4 102.4-102.4s102.4 44.8 102.4 102.4c0 32-12.8 57.6-32 76.8h51.2c25.6 0 44.8 19.2 44.8 44.8V281.6c0 102.4-83.2 179.2-185.6 179.2z m-544-480c-32 0-57.6 25.6-57.6 57.6s25.6 57.6 57.6 57.6 57.6-25.6 57.6-57.6-25.6-57.6-57.6-57.6z m19.2 793.6c96 0 179.2-83.2 179.2-185.6 0-102.4-76.8-185.6-179.2-185.6-102.4 0-179.2 83.2-179.2 185.6 0 102.4 76.8 185.6 179.2 185.6z m409.6-614.4H128c-32 0-57.6 25.6-57.6 57.6V486.4C108.8 403.2 192 345.6 288 345.6c134.4 0 236.8 108.8 236.8 243.2v12.8h121.6c32 0 57.6-25.6 57.6-57.6v-384z m128-179.2c-32 0-57.6 25.6-57.6 57.6s25.6 57.6 57.6 57.6 57.6-25.6 57.6-57.6-25.6-57.6-57.6-57.6z m-76.8 179.2v256h70.4c76.8 0 140.8-64 140.8-140.8v-121.6h-211.2zM275.2 556.8h70.4c19.2 0 38.4 12.8 38.4 32s-19.2 32-38.4 32h-32V729.6c0 19.2-12.8 32-32 32s-38.4-12.8-38.4-32v-140.8c0-19.2 12.8-32 32-32z"  horiz-adv-x="1024" />

    
    <glyph glyph-name="RSK" unicode="&#59186;" d="M505.6 640l339.2-576H166.4l339.2 576m0 128l-448-768H960L505.6 768zM531.2 512L416 313.6h70.4l-57.6-179.2L576 358.4H505.6z"  horiz-adv-x="1024" />

    
    <glyph glyph-name="angle-double-up" unicode="&#59836;" d="M797.110857 146.28571399999998q0-7.460571-5.705143-13.165714l-28.598857-28.598857q-5.705143-5.705143-13.165714-5.705143t-13.165714 5.705143l-224.548571 224.548571-224.548571-224.548571q-5.705143-5.705143-13.165714-5.705143t-13.165714 5.705143l-28.598857 28.598857q-5.705143 5.705143-5.705143 13.165714t5.705143 13.165714l266.313143 266.313143q5.705143 5.705143 13.165714 5.705143t13.165714-5.705143l266.313143-266.313143q5.705143-5.705143 5.705143-13.165714zM797.110857 365.714286q0-7.460571-5.705143-13.165714l-28.598857-28.598857q-5.705143-5.705143-13.165714-5.705143t-13.165714 5.705143l-224.548571 224.548571-224.548571-224.548571q-5.705143-5.705143-13.165714-5.705143t-13.165714 5.705143l-28.598857 28.598857q-5.705143 5.705143-5.705143 13.165714t5.705143 13.165714l266.313143 266.313143q5.705143 5.705143 13.165714 5.705143t13.165714-5.705143l266.313143-266.313143q5.705143-5.705143 5.705143-13.165714z"  horiz-adv-x="1024" />

    
    <glyph glyph-name="angle-right" unicode="&#58904;" d="M690.45435733 390.06481066q0-7.428096-5.71392-13.142016l-266.268672-266.268672q-5.71392-5.71392-13.142016-5.71392t-13.142016 5.71392l-28.5696 28.5696q-5.71392 5.71392-5.71392 13.142016t5.71392 13.142016l224.557056 224.557056-224.557056 224.557056q-5.71392 5.71392-5.71392 13.142016t5.71392 13.142016l28.5696 28.5696q5.71392 5.71392 13.142016 5.71392t13.142016-5.71392l266.268672-266.268672q5.71392-5.71392 5.71392-13.142016z"  horiz-adv-x="1024" />

    
    <glyph glyph-name="angle-double-right" unicode="&#58917;" d="M564 347.424q0-7.424-5.728-13.152l-266.272-266.272q-5.728-5.728-13.152-5.728t-13.152 5.728l-28.576 28.576q-5.728 5.728-5.728 13.152t5.728 13.152l224.576 224.576-224.576 224.576q-5.728 5.728-5.728 13.152t5.728 13.152l28.576 28.576q5.728 5.728 13.152 5.728t13.152-5.728l266.272-266.272q5.728-5.728 5.728-13.152zM783.424 347.424q0-7.424-5.728-13.152l-266.272-266.272q-5.728-5.728-13.152-5.728t-13.152 5.728l-28.576 28.576q-5.728 5.728-5.728 13.152t5.728 13.152l224.576 224.576-224.576 224.576q-5.728 5.728-5.728 13.152t5.728 13.152l28.576 28.576q5.728 5.728 13.152 5.728t13.152-5.728l266.272-266.272q5.728-5.728 5.728-13.152z"  horiz-adv-x="1024" />

    
    <glyph glyph-name="angle-double-left" unicode="&#58975;" d="M577.714286 109.71428600000002q0-7.428571-5.714286-13.142857l-28.571429-28.571429q-5.714286-5.714286-13.142857-5.714286t-13.142857 5.714286l-266.285714 266.285714q-5.714286 5.714286-5.714286 13.142857t5.714286 13.142857l266.285714 266.285714q5.714286 5.714286 13.142857 5.714286t13.142857-5.714286l28.571429-28.571429q5.714286-5.714286 5.714286-13.142857t-5.714286-13.142857l-224.571429-224.571429 224.571429-224.571429q5.714286-5.714286 5.714286-13.142857z m219.428571 0q0-7.428571-5.714286-13.142857l-28.571429-28.571429q-5.714286-5.714286-13.142857-5.714286t-13.142857 5.714286l-266.285714 266.285714q-5.714286 5.714286-5.714286 13.142857t5.714286 13.142857l266.285714 266.285714q5.714286 5.714286 13.142857 5.714286t13.142857-5.714286l28.571429-28.571429q5.714286-5.714286 5.714286-13.142857t-5.714286-13.142857l-224.571429-224.571429 224.571429-224.571429q5.714286-5.714286 5.714286-13.142857z"  horiz-adv-x="1024" />

    
    <glyph glyph-name="angle-down" unicode="&#58905;" d="M797.142857 496.76190433q0-7.428571-5.714286-13.142857l-266.285714-266.285714q-5.714286-5.714286-13.142857-5.714286t-13.142857 5.714286l-266.285714 266.285714q-5.714286 5.714286-5.714286 13.142857t5.714286 13.142857l28.571429 28.571429q5.714286 5.714286 13.142857 5.714286t13.142857-5.714286l224.571429-224.571429 224.571429 224.571429q5.714286 5.714286 13.142857 5.714286t13.142857-5.714286l28.571429-28.571429q5.714286-5.714286 5.714286-13.142857z"  horiz-adv-x="1024" />

    
    <glyph glyph-name="angle-double-down" unicode="&#59097;" d="M797.142857 402.285714q0-7.428571-5.714286-13.142857l-266.285714-266.285714q-5.714286-5.714286-13.142857-5.714286t-13.142857 5.714286L232.571429 389.142857q-5.714286 5.714286-5.714286 13.142857t5.714286 13.142857l28.571428 28.571429q5.714286 5.714286 13.142857 5.714286t13.142857-5.714286l224.571429-224.571429 224.571429 224.571429q5.714286 5.714286 13.142857 5.714286t13.142857-5.714286l28.571428-28.571429q5.714286-5.714286 5.714286-13.142857z m0 219.428572q0-7.428571-5.714286-13.142857L525.142857 342.285714q-5.714286-5.714286-13.142857-5.714285t-13.142857 5.714285L232.571429 608.571429q-5.714286 5.714286-5.714286 13.142857t5.714286 13.142857l28.571428 28.571428q5.714286 5.714286 13.142857 5.714286t13.142857-5.714286l224.571429-224.571428 224.571429 224.571428q5.714286 5.714286 13.142857 5.714286t13.142857-5.714286l28.571428-28.571428q5.714286-5.714286 5.714286-13.142857z"  horiz-adv-x="1024" />

    
    <glyph glyph-name="angle-up" unicode="&#58916;" d="M797.142857 262.09523765999995q0-7.428571-5.714286-13.142857l-28.571428-28.571428q-5.714286-5.714286-13.142857-5.714286t-13.142857 5.714286L512 444.95238066l-224.571429-224.571428q-5.714286-5.714286-13.142857-5.714286t-13.142857 5.714286l-28.571428 28.571428q-5.714286 5.714286-5.714286 13.142857t5.714286 13.142858l266.285714 266.285714q5.714286 5.714286 13.142857 5.714286t13.142857-5.714286l266.285714-266.285714q5.714286-5.714286 5.714286-13.142858z"  horiz-adv-x="1024" />

    
    <glyph glyph-name="angle-left" unicode="&#58883;" d="M669.147 627.809c-0.212-5.273-2.461-9.984-5.976-13.397l-224.314-224.317 224.585-224.585c3.438-3.438 5.705-8.558 5.705-13.129s-2.304-9.728-5.705-13.129l-28.562-28.562c-3.438-3.438-8.558-5.705-13.129-5.705s-9.728 2.304-13.129 5.705l-266.277 266.277c-3.438 3.438-5.705 8.558-5.705 13.129s2.304 9.728 5.705 13.129l266.277 266.277c3.438 3.438 8.558 5.705 13.129 5.705s9.728-2.304 13.129-5.705l28.562-28.562c3.488-3.355 5.667-8.049 5.707-13.252z"  horiz-adv-x="1024" />

    
    <glyph glyph-name="news-a" unicode="&#58900;" d="M868.352 753.984L155.648 753.984C105.024 753.984 64 711.936 64 660.032l0-412.352c0-51.904 41.024-93.952 91.648-93.952l40.32 0c16.384 0 29.696-13.632 29.696-30.464l0-87.68c0-18.304 20.864-28.288 34.56-16.512l123.2 106.048c21.504 18.496 48.64 28.608 76.672 28.608l408.32 0c50.624 0 91.648 42.048 91.648 93.952L960.064 660.032C960 711.936 918.976 753.984 868.352 753.984z"  horiz-adv-x="1024" />

    
    <glyph glyph-name="news" unicode="&#59176;" d="M600.371717 774.335354c0 46.545455-39.434343 84.428283-88.048485 84.428282-48.484848 0-88.048485-37.753535-88.048485-84.428282 0-4.783838 0.387879-9.438384 1.163637-13.963637-121.535354-40.59798-221.349495-165.365657-221.349495-312.888889v-116.234343s0-167.305051-42.925253-168.727273C135.692929 162.521212 116.040404 143.51515199999994 116.040404 120.24242400000003c0-23.40202 19.652525-42.149495 43.959596-42.149495h704.387879c24.436364 0 43.959596 18.876768 43.959596 42.149495 0 23.531313-19.652525 42.149495-43.959596 42.149495-44.088889 0-44.088889 167.563636-44.088889 167.563637V447.353535c0 147.781818-93.220202 272.549495-221.349495 313.018182 0.905051 4.654545 1.422222 9.179798 1.422222 13.963637z m43.959596-738.39192c-0.129293-69.947475-58.69899-126.707071-132.008081-126.70707-72.921212 0-131.878788 56.50101-132.00808 126.70707h264.016161z"  horiz-adv-x="1024" />

    
    <glyph glyph-name="shangxiayouguanxi" unicode="&#58978;" d="M0 704v-448c0-12.8 6.4-19.2 19.2-19.2H192c12.8 0 19.2 6.4 19.2 19.2v51.2c0 12.8-6.4 19.2-19.2 19.2H102.4c-12.8 0-19.2 6.4-19.2 19.2V620.8c0 6.4 12.8 19.2 19.2 19.2h524.8c12.8 0 19.2-6.4 19.2-19.2v-275.2c0-12.8-6.4-19.2-19.2-19.2H460.8c-12.8 0-19.2-6.4-19.2-19.2v-51.2c0-12.8 6.4-19.2 19.2-19.2h256c12.8 0 19.2 6.4 19.2 19.2V704c0 12.8-6.4 19.2-19.2 19.2H19.2c-12.8 0-19.2-6.4-19.2-19.2zM806.4 505.6v-51.2c0-12.8 6.4-19.2 19.2-19.2h96c12.8 0 19.2-6.4 19.2-19.2v-275.2c0-12.8-6.4-19.2-19.2-19.2H396.8c-12.8 0-19.2 6.4-19.2 19.2V422.4c0 12.8 6.4 19.2 19.2 19.2h160c6.4 0 19.2 6.4 19.2 12.8v51.2c0 12.8-6.4 19.2-19.2 19.2H307.2c-12.8 0-19.2-6.4-19.2-19.2V64c0-12.8 6.4-19.2 19.2-19.2h697.6c12.8 0 19.2 6.4 19.2 19.2V512c0 12.8-6.4 19.2-19.2 19.2h-185.6c-6.4-6.4-12.8-12.8-12.8-25.6z"  horiz-adv-x="1024" />

    
    <glyph glyph-name="shuxing" unicode="&#58986;" d="M480 230.39999999999998h441.6c6.4 0 12.8 6.4 12.8 12.8V364.79999999999995c0 6.4-6.4 12.8-12.8 12.8H480c-6.4 0-12.8-6.4-12.8-12.8v-32h-128V448h460.8c32 0 64 25.6 64 64V716.8c0 32-25.6 64-64 64H147.2c-32 0-64-25.6-64-64V512c0-32 25.6-64 64-64h121.6v-390.4c0-6.4 6.4-19.2 19.2-19.2h179.2v-32c0-6.4 6.4-12.8 12.8-12.8h441.6c6.4 0 12.8 6.4 12.8 12.8V128c0 6.4-6.4 12.8-12.8 12.8H480c-6.4 0-12.8-6.4-12.8-12.8v-32h-128V275.20000000000005h128v-32c0-6.4 6.4-12.8 12.8-12.8zM185.6 704h576c12.8 0 19.2-12.8 19.2-19.2v-134.4c0-12.8-12.8-19.2-19.2-19.2h-576c-12.8 0-19.2 12.8-19.2 19.2v128c-6.4 12.8 6.4 25.6 19.2 25.6z"  horiz-adv-x="1024" />

    
    <glyph glyph-name="file" unicode="&#60076;" d="M883.2 592.96l-160 213.44A64 64 0 0 1 672 832H192a64 64 0 0 1-64-64v-768a64 64 0 0 1 64-64h640a64 64 0 0 1 64 64V554.56a64 64 0 0 1-12.8 38.4zM672 192H352a32 32 0 0 0 0 64h320a32 32 0 0 0 0-64z m0 192H352a32 32 0 0 0 0 64h320a32 32 0 0 0 0-64z"  horiz-adv-x="1024" />

    
    <glyph glyph-name="reference-file" unicode="&#58920;" d="M512-128c281.6 0 512 230.4 512 512S793.6 896 512 896 0 665.6 0 384s230.4-512 512-512z m145.066667 583.111111c42.666667 39.822222 45.511111 110.933333 2.844444 153.6 0 2.844444-2.844444 2.844444-2.844444 2.844445-45.511111 42.666667-116.622222 42.666667-162.133334 0l-187.733333-179.2c-71.111111-68.266667-73.955556-179.2-5.688889-253.155556l5.688889-5.688889c73.955556-71.111111 193.422222-71.111111 267.377778 0l85.333333 85.333333c14.222222 11.377778 34.133333 11.377778 45.511111 0 11.377778-11.377778 14.222222-31.288889 0-42.666666l-85.333333-85.333334c-102.4-96.711111-261.688889-96.711111-361.244445 0-93.866667 91.022222-96.711111 241.777778-5.688888 338.488889l8.533333 8.533334 187.733333 179.2c71.111111 68.266667 184.888889 68.266667 256 0 68.266667-65.422222 71.111111-173.511111 5.688889-241.777778-2.844444-2.844444-2.844444-5.688889-5.688889-5.688889l-48.355555 45.511111zM494.933333 298.66666699999996l162.133334 156.444444 45.511111-45.511111-162.133334-156.444444c-42.666667-39.822222-108.088889-39.822222-150.755555 0-39.822222 36.977778-42.666667 102.4-2.844445 142.222222l2.844445 2.844444 105.244444 102.4c14.222222 11.377778 34.133333 11.377778 45.511111 0 11.377778-11.377778 14.222222-31.288889 0-42.666666L435.2 355.555556c-14.222222-14.222222-17.066667-39.822222 0-54.044445 17.066667-17.066667 42.666667-17.066667 59.733333-2.844444z"  horiz-adv-x="1024" />

    
    <glyph glyph-name="file-code-o" unicode="&#60079;" d="M911.989715 678.854368q16.017142-16.017142 27.426612-43.443754t11.409471-50.318692l0-658.238697q0-22.818942-16.017142-38.836083t-38.836083-16.017142l-767.945147 0q-22.818942 0-38.836083 16.017142t-16.017142 38.836083l0 914.220413q0 22.818942 16.017142 38.836083t38.836083 16.017142l511.963431 0q22.818942 0 50.318692-11.409471t43.443754-27.426612zM658.275266 818.3278339999999l0-214.805228 214.805228 0q-5.704735 16.602243-12.579673 23.404043l-178.821513 178.821513q-6.874938 6.874938-23.404043 12.579673zM877.688165-54.78922899999998l0 585.101064-237.697307 0q-22.818942 0-38.836083 16.017142t-16.017142 38.836083l0 237.697307-438.825798 0 0-877.651596 731.37633 0zM347.440326 457.174202q4.534533 6.289836 11.994572 7.167488t13.676737-3.730019l29.108778-21.721877q6.289836-4.534533 7.167488-11.994572t-3.730019-13.676737l-104.001714-138.815227 104.001714-138.815227q4.534533-6.289836 3.730019-13.676737t-7.167488-11.994572l-29.108778-21.721877q-6.289836-4.534533-13.676737-3.730019t-11.994572 7.167488l-129.16106 172.019713q-7.972002 10.82437 0 21.721877zM805.720734 285.154489q7.972002-10.82437 0-21.721877l-129.16106-172.019713q-4.534533-6.289836-11.994572-7.167488t-13.676737 3.730019l-29.108778 21.721877q-6.289836 4.534533-7.167488 11.994572t3.730019 13.676737l104.001714 138.815227-104.001714 138.815227q-4.534533 6.289836-3.730019 13.676737t7.167488 11.994572l29.108778 21.721877q6.289836 4.534533 13.676737 3.730019t11.994572-7.167488zM451.44204 21.78587200000004q-7.460039 1.170202-11.702021 7.460039t-3.144918 13.676737l78.842368 474.809514q1.170202 7.460039 7.460039 11.702021t13.676737 3.144918l35.983715-5.704735q7.460039-1.170202 11.702021-7.460039t3.144918-13.676737l-78.842368-474.809514q-1.170202-7.460039-7.460039-11.702021t-13.676737-3.144918z"  horiz-adv-x="1024" />

    
    <glyph glyph-name="filter" unicode="&#59134;" d="M608.256-64c-17.696 0-32 14.304-32 32V448a31.912 31.912 0 0 0 8.256 21.44l208.8 234.496h-562.88L439.648 469.28a32.03 32.03 0 0 0 8.096-21.312V159.2l50.848-41.152c13.76-11.136 15.872-31.264 4.736-44.992s-31.264-15.84-44.992-4.736l-62.72 50.752c-7.52 6.048-11.872 15.232-11.872 24.864V435.808L135.136 714.656c-8.384 9.408-10.464 22.88-5.312 34.4 5.152 11.488 16.608 18.912 29.216 18.912h706.336c12.672 0 24.128-7.456 29.248-19.008s2.976-25.056-5.504-34.432L640.256 435.712V-32c0-17.696-14.304-32-32-32z"  horiz-adv-x="1024" />

    
    <glyph glyph-name="eye" unicode="&#60084;" d="M950.857143 347.428571q-86.820571 134.875429-217.746286 201.728 34.889143-59.465143 34.889143-128.585143 0-105.691429-75.117714-180.882286t-180.882286-75.117714-180.882286 75.117714-75.117714 180.882286q0 69.12 34.889143 128.585143-130.852571-66.852571-217.746286-201.728 75.995429-117.174857 190.537143-186.587429t248.32-69.412571 248.32 69.412571 190.537143 186.587429zM539.428571 566.857143q0 11.410286-7.972571 19.456t-19.456 7.972571q-71.460571 0-122.587429-51.126857t-51.126857-122.587429q0-11.410286 7.972571-19.456t19.456-7.972571 19.456 7.972571 7.972571 19.456q0 49.152 34.889143 83.968t83.968 34.889143q11.410286 0 19.456 7.972571t7.972571 19.456zM1024 347.428571q0-19.456-11.410286-39.424-80.018286-131.437714-215.113143-210.578286t-285.403429-79.140571-285.403429 79.433143-215.113143 210.285714q-11.410286 19.968-11.410286 39.424t11.410286 39.424q80.018286 130.852571 215.113143 210.285714t285.403429 79.433143 285.403429-79.433143 215.113143-210.285714q11.410286-19.968 11.410286-39.424z"  horiz-adv-x="1024" />

    
    <glyph glyph-name="check" unicode="&#59135;" d="M376.123077 59.076923L51.2 385.969231c-11.815385 11.815385-11.815385 31.507692 0 43.323077l43.323077 43.323077c11.815385 11.815385 31.507692 11.815385 43.323077 0L382.030769 226.461538c7.876923-7.876923 21.661538-7.876923 29.538462 0L890.092308 708.923077c11.815385 11.815385 31.507692 11.815385 43.323077 0l43.323077-43.323077c11.815385-11.815385 11.815385-31.507692 0-43.323077L419.446154 59.076923c-11.815385-13.784615-31.507692-13.784615-43.323077 0z"  horiz-adv-x="1024" />

    
    <glyph glyph-name="eye-slash" unicode="&#60086;" d="M317.220571 133.12l44.544 80.603429q-49.737143 35.986286-77.677714 90.843429t-28.013714 116.004571q0 69.12 34.889143 128.585143-130.852571-66.852571-217.746286-201.728 95.451429-147.456 244.004571-214.308571zM539.501714 566.857143q0 11.410286-7.972571 19.456t-19.456 7.972571q-71.460571 0-122.587429-51.126857t-51.126857-122.587429q0-11.410286 7.972571-19.456t19.456-7.972571 19.456 7.972571 7.972571 19.456q0 49.152 34.889143 83.968t83.968 34.889143q11.410286 0 19.456 7.972571t7.972571 19.456zM746.934857 675.9862860000001q0-4.022857-0.585143-5.12-59.977143-107.446857-180.004571-323.437714t-180.589714-324.022857l-28.013714-50.834286q-5.705143-9.142857-16.018286-9.142857-6.875429 0-76.580571 40.009143-9.142857 5.705143-9.142857 16.018286 0 6.875429 25.161143 49.737143-81.700571 37.156571-150.601143 98.889143t-119.149714 139.995429q-11.410286 17.700571-11.410286 39.424t11.410286 39.424q87.405714 134.290286 217.161143 211.968t283.428571 77.677714q50.834286 0 102.838857-9.728l30.866286 55.442286q5.705143 9.142857 16.018286 9.142857 2.852571 0 10.313143-3.437714t17.700571-8.850286 18.870857-10.605714 17.993143-10.605714 11.117714-6.582857q9.142857-5.705143 9.142857-15.433143zM768.073143 420.571429q0-79.433143-45.129143-144.822857t-119.442286-93.988571l160.036571 286.866286q4.534857-25.746286 4.534857-47.981714zM1024.073143 347.42857100000003q0-19.968-11.410286-39.424-22.308571-36.571429-62.317714-82.870857-85.723429-98.304-198.582857-152.576t-239.689143-54.272l42.276571 75.410286q121.124571 10.313143 224.256 78.262857t172.251429 175.396571q-65.682286 102.253714-161.133714 168.009143l35.986286 64q54.272-36.571429 104.301714-87.405714t82.578286-105.179429q11.410286-19.456 11.410286-39.424z"  horiz-adv-x="1025" />

    
    <glyph glyph-name="set-resource" unicode="&#59020;" d="M787.2 697.6c0-64-172.8-128-390.4-128s-390.4 64-390.4 128 172.8 115.2 390.4 115.2 390.4-51.2 390.4-115.2zM1017.6 128v89.6l-76.8 6.4c-6.4 12.8-6.4 19.2-12.8 32l51.2 64-64 64-64-51.2c-12.8 6.4-19.2 12.8-32 12.8l-6.4 76.8h-89.6l-6.4-76.8c-12.8-6.4-19.2-6.4-32-12.8l-64 51.2-64-64 51.2-64c-6.4-12.8-12.8-19.2-12.8-32l-76.8-6.4V128l76.8-6.4c6.4-12.8 6.4-19.2 12.8-32l-51.2-64 64-64 64 51.2c12.8-6.4 19.2-12.8 32-12.8l6.4-76.8h89.6l6.4 76.8c12.8 6.4 19.2 6.4 32 12.8l64-51.2 64 64-51.2 64c6.4 12.8 12.8 19.2 12.8 32l76.8 6.4z m-249.6-51.2c-51.2 0-96 44.8-96 96s44.8 96 96 96 96-44.8 96-96-38.4-96-96-96zM473.6 121.60000000000002c-25.6 0-51.2-6.4-76.8-6.4-160 0-326.4 38.4-390.4 102.4v-115.2c0-64 172.8-128 390.4-128 51.2 0 96 6.4 140.8 12.8-32 32-51.2 83.2-64 134.4zM512 326.4c-38.4-6.4-76.8-12.8-115.2-12.8-160 0-326.4 38.4-390.4 102.4v-115.2c0-64 172.8-128 390.4-128 25.6 0 51.2 0 76.8 6.4 0 51.2 12.8 102.4 38.4 147.2zM768 473.6c6.4 0 6.4 0 0 0 12.8 6.4 19.2 19.2 19.2 25.6V614.4C716.8 550.4 550.4 512 396.8 512 236.8 512 70.4 550.4 6.4 614.4v-115.2c0-64 172.8-128 390.4-128 57.6 0 115.2 6.4 160 12.8 57.6 51.2 134.4 89.6 211.2 89.6zM768 172.79999999999995m-38.4 0a38.4 38.4 0 1 1 76.8 0 38.4 38.4 0 1 1-76.8 0Z"  horiz-adv-x="1024" />

    
    <glyph glyph-name="file-word-o" unicode="&#60093;" d="M886.4 659.84c10.24-10.24 18.56-23.68 25.6-40.96 7.04-17.28 10.88-32.64 10.88-47.36v-615.68c0-14.08-5.12-26.24-14.72-36.48a49.28 49.28 0 0 0-36.48-14.72H152.96a51.84 51.84 0 0 0-36.48 14.72 49.28 49.28 0 0 0-14.72 36.48V811.52c0 14.08 5.12 26.24 14.72 36.48a49.28 49.28 0 0 0 36.48 14.72h478.72c14.08 0 30.08-3.84 47.36-10.88 17.28-7.04 30.72-15.36 40.96-25.6l166.4-166.4z m-237.44 130.56v-200.96h200.96c-3.84 10.24-7.68 17.92-11.52 21.76l-167.04 167.04c-5.12 4.48-12.16 8.32-22.4 12.16z m205.44-816.64V520.96H631.68a51.84 51.84 0 0 0-36.48 14.72 51.84 51.84 0 0 0-14.72 36.48V794.88H169.6v-821.12h684.8zM225.92 452.48v-56.96h37.12l87.68-353.28h85.12l68.48 259.2c2.56 7.04 4.48 15.36 5.12 24.32 0.64 5.76 1.28 10.24 1.28 12.8h1.92l1.28-12.8c0.64-1.28 1.28-4.48 1.92-10.88 1.28-5.76 2.56-10.24 3.84-13.44l68.48-259.2h85.12l87.68 353.28h37.12v56.96H637.44v-56.96h48l-53.12-234.24c-1.92-7.04-3.2-15.36-3.84-24.32l-1.28-11.52h-1.28l-1.28 11.52a67.84 67.84 0 0 0-1.92 11.52c-1.28 5.76-1.92 10.24-2.56 13.44l-76.8 291.2h-62.08l-76.8-291.2c-0.64-3.2-1.28-7.68-2.56-12.8-0.64-5.76-1.28-9.6-1.92-11.52l-1.92-11.52h-1.92l-1.28 11.52c-0.64 8.96-1.92 17.28-3.84 24.32l-53.12 233.6h48v56.96h-160z m0 0"  horiz-adv-x="1024" />

    
    <glyph glyph-name="people-list-light" unicode="&#59354;" d="M810.666667 544C810.666667 701.866667 682.666667 832 522.666667 832S234.666667 701.866667 234.666667 544c0-117.333333 70.4-217.6 170.666666-262.4-132.266667-40.533333-241.066667-153.6-275.2-298.666667-2.133333-10.666667 4.266667-23.466667 14.933334-25.6H149.333333c10.666667 0 19.2 6.4 21.333334 17.066667C211.2 136.53333299999997 354.133333 256 514.133333 256h8.533334C682.666667 256 810.666667 384 810.666667 544z m-533.333334 0C277.333333 678.4 388.266667 789.333333 522.666667 789.333333S768 678.4 768 544 659.2 298.66666699999996 522.666667 298.66666699999996 277.333333 407.466667 277.333333 544zM701.866667 234.66666699999996c0-12.8 8.533333-21.333333 21.333333-21.333334H874.666667c12.8 0 21.333333 8.533333 21.333333 21.333334s-8.533333 21.333333-21.333333 21.333333h-151.466667c-10.666667 0-21.333333-10.666667-21.333333-21.333333zM704 85.33333300000004h170.666667c12.8 0 21.333333 8.533333 21.333333 21.333334s-8.533333 21.333333-21.333333 21.333333h-170.666667c-12.8 0-21.333333-8.533333-21.333333-21.333333s10.666667-21.333333 21.333333-21.333334zM620.8-2.1333329999999933h-21.333333c-12.8 0-21.333333-8.533333-21.333334-21.333334s8.533333-21.333333 21.333334-21.333333h21.333333c12.8 0 21.333333 8.533333 21.333333 21.333333s-10.666667 21.333333-21.333333 21.333334zM597.333333 85.33333300000004h21.333334c12.8 0 21.333333 8.533333 21.333333 21.333334s-8.533333 21.333333-21.333333 21.333333h-21.333334c-12.8 0-21.333333-8.533333-21.333333-21.333333s8.533333-21.333333 21.333333-21.333334zM874.666667 0h-170.666667c-12.8 0-21.333333-8.533333-21.333333-21.333333s8.533333-21.333333 21.333333-21.333334h170.666667c12.8 0 21.333333 8.533333 21.333333 21.333334s-8.533333 21.333333-21.333333 21.333333z"  horiz-adv-x="1024" />

    
    <glyph glyph-name="flag-o" unicode="&#60101;" d="M950.857143 298.861714l0 352.036571q-96.548571-52.004571-174.884571-52.004571-46.884571 0-82.870857 18.285714-57.124571 28.013714-105.179429 43.739429t-101.741714 15.725714q-98.889143 0-230.253714-72.557714l0-342.308571q139.995429 64.585143 247.442286 64.585143 31.451429 0 59.172571-4.315429t56.027429-14.848 44.032-17.700571 47.177143-22.601143l16.018286-7.972571q25.161143-12.580571 57.709714-12.580571 68.534857 0 167.424 52.589714zM182.857143 749.714286q0-19.968-10.020571-36.571429t-26.550857-26.258286l0-723.456q0-7.972571-5.12-13.165714t-13.165714-5.12l-36.571429 0q-7.972571 0-13.165714 5.12t-5.12 13.165714l0 723.456q-16.603429 9.728-26.550857 26.258286t-10.020571 36.571429q0 30.281143 21.430857 51.712t51.712 21.430857 51.712-21.430857 21.430857-51.712zM1024 713.142857l0-436.004571q0-22.308571-19.968-32.548571-5.705143-2.852571-9.728-5.12-124.562286-66.267429-210.870857-66.267429-50.322286 0-90.258286 19.968l-16.018286 7.972571q-36.571429 18.870857-56.539429 27.428571t-52.004571 16.603429-65.170286 7.972571q-58.294857 0-134.582857-25.161143t-130.56-58.294857q-8.557714-5.12-18.870857-5.12-9.142857 0-18.285714 4.534857-18.285714 10.825143-18.285714 32.036571l0 424.009143q0 19.968 17.700571 31.451429 19.968 11.995429 44.836571 24.283429t65.170286 29.696 87.113143 28.306286 88.576 10.825143q64 0 119.442286-17.700571t119.442286-49.152q21.723429-10.825143 50.834286-10.825143 69.705143 0 177.152 64 12.580571 6.875429 17.700571 9.728 17.700571 9.142857 35.401143-1.170286 17.700571-11.410286 17.700571-31.451429z"  horiz-adv-x="1024" />

    
    <glyph glyph-name="profile-light" unicode="&#59357;" d="M486.4 633.6m-204.8 0a204.8 204.8 0 1 1 409.6 0 204.8 204.8 0 1 1-409.6 0ZM966.4 230.39999999999998H569.6c-32 0-57.6-25.6-57.6-57.6v-192c0-32 25.6-57.6 57.6-57.6h403.2c32 0 57.6 25.6 57.6 57.6v192c-6.4 38.4-32 57.6-64 57.6z m-6.4-243.2h-262.4c-12.8 0-25.6 12.8-25.6 25.6s12.8 25.6 25.6 25.6H960c12.8 0 25.6-12.8 25.6-25.6s-12.8-25.6-25.6-25.6z m19.2 108.8c0-12.8-6.4-19.2-19.2-19.2h-153.6c-12.8 0-19.2 6.4-19.2 19.2v12.8c0 12.8 6.4 19.2 19.2 19.2H960c12.8 0 19.2-6.4 19.2-19.2v-12.8zM800 281.6zM806.4 300.79999999999995zM812.8 300.79999999999995c-6.4 0-6.4 0 0 0-89.6 64-198.4 108.8-326.4 108.8-268.8 0-480-185.6-486.4-416 0 0 0-6.4 6.4-6.4h448c6.4 0 6.4 6.4 6.4 6.4v224c6.4 38.4 25.6 57.6 57.6 64h281.6c6.4 0 12.8 6.4 12.8 12.8v6.4z"  horiz-adv-x="1024" />

    
    <glyph glyph-name="folder-o" unicode="&#60106;" d="M972.8 652.8H473.6L390.4 729.6c-6.4 6.4-6.4 6.4-12.8 6.4H51.2c-25.6 0-51.2-19.2-51.2-44.8v-608c0-25.6 25.6-44.8 51.2-44.8H979.2c25.6 0 51.2 19.2 51.2 44.8V608c-6.4 25.6-32 44.8-57.6 44.8z"  horiz-adv-x="1024" />

    
    <glyph glyph-name="chukudengji" unicode="&#59022;" d="M271.059 85.835h481.882v60.235h-481.882zM180.706 838.776c-66.259 0-120.471-54.212-120.471-120.471v-662.588c0-66.259 54.212-120.471 120.471-120.471h662.588c66.259 0 120.471 54.212 120.471 120.471v662.588c0 66.259-54.212 120.471-120.471 120.471h-90.353v-60.235h90.353c36.141 0 60.235-24.094 60.235-60.235v-662.588c0-30.118-24.094-60.235-60.235-60.235h-662.588c-30.118 0-60.235 24.094-60.235 60.235v662.588c0 30.118 24.094 60.235 60.235 60.235h102.4v60.235h-102.4zM548.141 597.835v-373.459h-60.235v373.459l-102.4-108.424-42.165 42.165 174.682 180.706 180.706-180.706-42.165-42.165-108.424 108.424z"  horiz-adv-x="1024" />

    
    <glyph glyph-name="file-text" unicode="&#60111;" d="M912.018286 623.981714q7.972571-7.972571 16.018286-20.553143l-269.677714 0 0 269.677714q12.580571-7.972571 20.553143-16.018286zM640 530.285714l310.857143 0 0-603.428571q0-22.820571-16.018286-38.838857t-38.838857-16.018286l-768 0q-22.820571 0-38.838857 16.018286t-16.018286 38.838857l0 914.285714q0 22.820571 16.018286 38.838857t38.838857 16.018286l457.142857 0 0-310.857143q0-22.820571 16.018286-38.838857t38.838857-16.018286zM731.428571 109.71428600000002l0 36.571429q0 7.972571-5.12 13.165714t-13.165714 5.12l-402.285714 0q-7.972571 0-13.165714-5.12t-5.12-13.165714l0-36.571429q0-7.972571 5.12-13.165714t13.165714-5.12l402.285714 0q7.972571 0 13.165714 5.12t5.12 13.165714zM731.428571 256l0 36.571429q0 7.972571-5.12 13.165714t-13.165714 5.12l-402.285714 0q-7.972571 0-13.165714-5.12t-5.12-13.165714l0-36.571429q0-7.972571 5.12-13.165714t13.165714-5.12l402.285714 0q7.972571 0 13.165714 5.12t5.12 13.165714zM731.428571 402.285714l0 36.571429q0 7.972571-5.12 13.165714t-13.165714 5.12l-402.285714 0q-7.972571 0-13.165714-5.12t-5.12-13.165714l0-36.571429q0-7.972571 5.12-13.165714t13.165714-5.12l402.285714 0q7.972571 0 13.165714 5.12t5.12 13.165714z"  horiz-adv-x="1024" />

    
    <glyph glyph-name="rukudengji" unicode="&#59023;" d="M271.059 85.835h481.882v60.235h-481.882zM180.706 838.776c-66.259 0-120.471-54.212-120.471-120.471v-662.588c0-66.259 54.212-120.471 120.471-120.471h662.588c66.259 0 120.471 54.212 120.471 120.471v662.588c0 66.259-54.212 120.471-120.471 120.471h-90.353v-60.235h90.353c36.141 0 60.235-24.094 60.235-60.235v-662.588c0-30.118-24.094-60.235-60.235-60.235h-662.588c-30.118 0-60.235 24.094-60.235 60.235v662.588c0 30.118 24.094 60.235 60.235 60.235h102.4v60.235h-102.4zM481.882 344.847v373.459h60.235v-373.459l102.4 108.424 42.165-42.165-174.682-180.706-180.706 180.706 42.165 42.165 108.424-108.424z"  horiz-adv-x="1024" />

    
    <glyph glyph-name="folder-open-o" unicode="&#60123;" d="M1017.709714 364.032q0 19.968-30.281143 19.968l-621.714286 0q-22.820571 0-48.859429-12.288t-40.886857-29.988571l-168.009143-207.433143q-10.313143-13.677714-10.313143-22.820571 0-19.968 30.281143-19.968l621.714286 0q22.820571 0 49.152 12.580571t40.594286 30.281143l168.009143 207.433143q10.313143 12.580571 10.313143 22.308571zM365.714286 457.142857l438.857143 0 0 91.428571q0 22.820571-16.018286 38.838857t-38.838857 16.018286l-329.142857 0q-22.820571 0-38.838857 16.018286t-16.018286 38.838857l0 36.571429q0 22.820571-16.018286 38.838857t-38.838857 16.018286l-182.857143 0q-22.820571 0-38.838857-16.018286t-16.018286-38.838857l0-487.424 146.285714 180.004571q25.161143 30.281143 66.267429 50.029714t80.018286 19.748571zM1090.852571 364.032q0-35.401143-26.258286-68.534857l-168.594286-207.433143q-24.576-30.281143-66.267429-50.029714t-80.018286-19.748571l-621.714286 0q-52.589714 0-90.258286 37.741714t-37.741714 90.258286l0 548.571429q0 52.589714 37.741714 90.258286t90.258286 37.741714l182.857143 0q52.589714 0 90.258286-37.741714t37.741714-90.258286l0-18.285714 310.857143 0q52.589714 0 90.258286-37.741714t37.741714-90.258286l0-91.428571 109.714286 0q30.866286 0 56.539429-13.970286t38.253714-40.301714q8.557714-18.285714 8.557714-38.838857z"  horiz-adv-x="1098" />

    
    </font>
</defs>
</svg>
